<?xml version="1.0" encoding="UTF-8"?>
<svg version="1.1" xmlns="http://www.w3.org/2000/svg" width="1024" height="1024">
<path d="M0 0 C0.94726959 -0.00970322 1.89453918 -0.01940643 2.87051392 -0.02940369 C5.96710458 -0.05445406 9.06347402 -0.06696733 12.16015625 -0.07421875 C13.22233368 -0.07683716 14.28451111 -0.07945557 15.37887573 -0.08215332 C56.11285945 -0.09284455 99.55805058 4.01998934 138.25 17.5612793 C141.38731696 18.63798473 144.58932627 19.47828218 147.78515625 20.36328125 C167.81117719 26.08729571 187.51221612 34.12553861 206.22265625 43.23828125 C206.94001953 43.58552246 207.65738281 43.93276367 208.39648438 44.29052734 C219.40753698 49.67721189 231.57526049 55.71759391 237.22265625 67.23828125 C239.49758124 74.80591844 240.83040453 82.30772217 241.41015625 90.17578125 C241.48911133 91.2215332 241.56806641 92.26728516 241.64941406 93.34472656 C243.9499017 128.07113516 242.10585648 162.95743247 236.22265625 197.23828125 C236.07070801 198.13836914 235.91875977 199.03845703 235.76220703 199.96582031 C232.36671508 219.64841787 226.7100847 238.84356775 219.03710938 257.27880859 C218.27629038 259.10924423 217.53767079 260.94886306 216.80078125 262.7890625 C210.13401693 279.02525539 201.26512824 294.27614804 192.33251953 309.35058594 C191.3750313 310.97911629 190.44996403 312.62662894 189.53125 314.27734375 C188.88349609 315.24800781 188.88349609 315.24800781 188.22265625 316.23828125 C187.56265625 316.23828125 186.90265625 316.23828125 186.22265625 316.23828125 C185.96613281 316.95886719 185.70960938 317.67945313 185.4453125 318.421875 C184.14917661 321.40754267 182.60564548 323.69500476 180.66015625 326.30078125 C179.95375 327.25210937 179.24734375 328.2034375 178.51953125 329.18359375 C177.7615625 330.19164062 177.00359375 331.1996875 176.22265625 332.23828125 C175.41506096 333.31878354 174.60777238 334.39951515 173.80078125 335.48046875 C171.61355756 338.40391479 169.41954494 341.32209567 167.22265625 344.23828125 C166.68253906 345.01300781 166.14242188 345.78773438 165.5859375 346.5859375 C164.91111328 347.40384766 164.91111328 347.40384766 164.22265625 348.23828125 C163.56265625 348.23828125 162.90265625 348.23828125 162.22265625 348.23828125 C161.97902344 348.8003125 161.73539063 349.36234375 161.484375 349.94140625 C159.98084689 352.6784791 158.15565877 354.69624066 156.03515625 356.98828125 C153.29285101 359.96591566 150.59124469 362.96480828 147.94921875 366.03125 C144.07410213 370.47234792 139.962851 374.6456483 135.78515625 378.80078125 C135.07294922 379.51685547 134.36074219 380.23292969 133.62695312 380.97070312 C126.9330271 387.65246943 119.96671133 393.79209737 112.3984375 399.46484375 C110.10421588 401.2717356 110.10421588 401.2717356 107.77734375 403.69921875 C103.36034539 408.08920183 98.2415658 411.57306259 93.22265625 415.23828125 C92.53381348 415.74488281 91.8449707 416.25148438 91.13525391 416.7734375 C81.37432425 423.9477316 71.53183048 430.87448449 61.22265625 437.23828125 C60.64515625 437.59841309 60.06765625 437.95854492 59.47265625 438.32958984 C51.87705582 443.05393671 44.1328274 447.43653325 36.22265625 451.61328125 C35.4335083 452.0302124 34.64436035 452.44714355 33.83129883 452.87670898 C23.82238473 458.09666897 14.20922797 462.25439481 2.75 459.1328125 C-10.51863092 454.43649645 -22.3893353 446.91497865 -34.37890625 439.67431641 C-37.48561251 437.81421398 -40.62423865 436.01839965 -43.77734375 434.23828125 C-43.77734375 433.57828125 -43.77734375 432.91828125 -43.77734375 432.23828125 C-44.64359375 431.99078125 -45.50984375 431.74328125 -46.40234375 431.48828125 C-49.98794439 430.16028101 -52.74062362 428.55197277 -55.77734375 426.23828125 C-55.77734375 425.57828125 -55.77734375 424.91828125 -55.77734375 424.23828125 C-57.05738281 423.89990234 -57.05738281 423.89990234 -58.36328125 423.5546875 C-62.30195976 422.03599796 -65.19248565 419.83614286 -68.40234375 417.17578125 C-69.62517146 416.18480115 -70.84915253 415.19524273 -72.07421875 414.20703125 C-72.99364258 413.46259766 -72.99364258 413.46259766 -73.93164062 412.703125 C-77.74004649 409.68058066 -81.70311592 406.8610593 -85.64453125 404.015625 C-86.34835937 403.42910156 -87.0521875 402.84257813 -87.77734375 402.23828125 C-87.77734375 401.57828125 -87.77734375 400.91828125 -87.77734375 400.23828125 C-88.57205078 399.90376953 -88.57205078 399.90376953 -89.3828125 399.5625 C-92.61261804 397.77635958 -95.30367152 395.44546798 -98.08984375 393.05078125 C-98.67016357 392.55610352 -99.2504834 392.06142578 -99.84838867 391.55175781 C-103.44718928 388.45799007 -106.87641752 385.26516771 -110.171875 381.84765625 C-111.96688694 380.04827688 -113.8513829 378.39644183 -115.77734375 376.73828125 C-121.58606861 371.71300676 -126.80595436 366.29967323 -131.81640625 360.484375 C-134.96168847 356.88171111 -138.2094459 353.37279686 -141.4453125 349.8515625 C-147.77734375 342.75586919 -147.77734375 342.75586919 -147.77734375 340.23828125 C-148.43734375 340.23828125 -149.09734375 340.23828125 -149.77734375 340.23828125 C-159.7501976 328.48106874 -167.84400752 314.41029731 -175.77734375 301.23828125 C-176.32648438 300.35785156 -176.875625 299.47742188 -177.44140625 298.5703125 C-205.73286556 252.11064117 -219.65230987 195.54381865 -220.015625 141.37890625 C-220.02369675 140.19141785 -220.03176849 139.00392944 -220.04008484 137.78045654 C-220.05381964 135.27959607 -220.06458841 132.77871768 -220.07250977 130.27783203 C-220.08396775 127.77289148 -220.1043198 125.26797412 -220.1340332 122.76318359 C-220.29021683 109.53730951 -220.06572812 96.57009783 -218.0703125 83.47265625 C-217.92298172 82.46857727 -217.77565094 81.46449829 -217.62385559 80.42999268 C-215.59983682 68.66644983 -209.76593836 60.27017645 -200.40332031 53.06152344 C-196.0424861 50.03375197 -191.34669188 47.87195508 -186.52734375 45.67578125 C-185.50592285 45.20035889 -184.48450195 44.72493652 -183.43212891 44.23510742 C-181.42792508 43.3034795 -179.42165714 42.37627576 -177.41308594 41.45410156 C-175.30747049 40.48281915 -173.21418364 39.4942985 -171.12890625 38.48046875 C-157.29265272 31.83470918 -142.75900308 26.6707251 -128.07421875 22.25390625 C-125.56152851 21.47985476 -123.15031989 20.65413492 -120.71484375 19.67578125 C-114.58972475 17.29527649 -108.14093081 15.83902174 -101.77734375 14.23828125 C-101.12088867 14.07183105 -100.46443359 13.90538086 -99.78808594 13.73388672 C-91.007719 11.52692962 -82.18232853 9.68332442 -73.27734375 8.05078125 C-72.36976318 7.88384766 -71.46218262 7.71691406 -70.52709961 7.54492188 C-66.43916689 6.81443734 -62.37854674 6.16596402 -58.24609375 5.75 C-55.12429388 5.43531764 -52.13431563 4.91588873 -49.0703125 4.2421875 C-42.79275229 2.93279499 -36.47903513 2.57971583 -30.08984375 2.17578125 C-27.73162354 2.02044938 -25.37354417 1.86296154 -23.015625 1.703125 C-21.98477783 1.63730225 -20.95393066 1.57147949 -19.8918457 1.50366211 C-17.75271044 1.32139041 -15.6195026 1.05671658 -13.49853516 0.72412109 C-8.98038203 0.13422969 -4.55165849 0.0388432 0 0 Z " fill="#589EC4" transform="translate(500.77734375,286.76171875)"/>
<path d="M0 0 C4.10601848 1.77305344 6.66278175 4.19119988 9 8 C9.65724433 13.1640626 8.91621792 16.67595274 6 21 C3.525 21.99 3.525 21.99 1 23 C1 26.63 1 30.26 1 34 C2.98 34.5878125 2.98 34.5878125 5 35.1875 C16.84246863 39.19058799 24.69392785 47.17029798 30.96875 57.80078125 C32 60 32 60 32 63 C32.66 63 33.32 63 34 63 C34.11085938 62.27554688 34.22171875 61.55109375 34.3359375 60.8046875 C36.60309717 51.22927197 44.06875028 43.39680433 52.125 38.1875 C56.03623405 35.88766412 59.38268066 34 64 34 C64 30.37 64 26.74 64 23 C62.35 22.34 60.7 21.68 59 21 C56.2296999 18.16894771 55.54891603 16.05051139 55.5 12.125 C55.5975446 8.45623936 56.03780217 6.29330682 58.375 3.4375 C62.01088932 0.06131706 63.99052315 -0.29089822 68.96875 -0.21875 C72.79969246 0.19381303 75.10525125 1.99883696 77.609375 4.80078125 C80.02201965 8.61628388 79.65593037 12.64123687 79 17 C77.20353146 19.93423195 76.0558929 21.47205355 73 23 C72.53248212 25.35599235 72.53248212 25.35599235 72.375 28.0625 C72.30023437 28.98160156 72.22546875 29.90070313 72.1484375 30.84765625 C72.07496094 31.91306641 72.07496094 31.91306641 72 33 C73.27230469 32.89558594 73.27230469 32.89558594 74.5703125 32.7890625 C86.77569544 32.22573713 96.30314595 35.38879219 105.625 43.5625 C107.9704296 45.80786861 109.99782579 47.99709668 111.9453125 50.59765625 C114.21441243 53.25069133 116.12456336 54.3658606 119.25 55.875 C124.54843458 58.60600521 128.73129518 61.86583888 133 66 C137.3104859 64.60543103 141.24078872 62.67043229 144 59 C144.62791265 56.63376091 144.62791265 56.63376091 144.9375 54.0625 C145.52202613 50.1520202 146.26961951 48.09276037 149.1875 45.375 C151.86189112 43.42191769 153.18272173 42.96794356 156.5625 42.375 C161.4431217 43.26238576 164.30295517 45.41609149 167.875 48.75 C169.56295226 52.12590452 169.5241091 55.34579488 169 59 C167.67123576 62.32191059 166.42469071 63.68420434 163.5625 65.8125 C159.93585823 67.02138059 157.93722846 66.9742204 154.1875 66.75 C147.99918089 66.53367923 145.07746479 68.42013784 140.546875 72.46875 C140.03640625 72.9740625 139.5259375 73.479375 139 74 C139.45294865 75.75140143 139.91258748 77.50107344 140.375 79.25 C140.75785156 80.71179688 140.75785156 80.71179688 141.1484375 82.203125 C142.61884706 87.03254354 143.80765465 89.19665432 148.1875 91.8125 C157.79180981 97.96357483 164.36200213 106.01877428 167.453125 117.078125 C168.35216859 121.88158644 168.47252705 126.70785858 168.59375 131.58203125 C169.02483351 135.20893579 170.02716403 136.9935239 172 140 C172 140.99 172 141.98 172 143 C176.95 143 181.9 143 187 143 C187.66 141.68 188.32 140.36 189 139 C191.54494003 136.75802902 193.53087714 135.12362482 196.99609375 134.83203125 C201.72680078 135.21656887 204.58454788 136.58454788 208 140 C210.51475368 143.77213052 210.44796416 145.52035842 210 150 C208.71009499 153.30455046 207.21682383 156.232151 204.13671875 158.17578125 C200.44830607 159.59855104 196.8845112 159.56778952 193 159 C190 157.25 190 157.25 188 155 C187.67 153.68 187.34 152.36 187 151 C182.71 151 178.42 151 174 151 C174.31850069 158.21934897 175.79787638 163.58845501 178.84375 170.140625 C183.64746036 182.02007089 181.19865211 196.59328611 176.78125 208.203125 C172.10962796 218.32497276 164.75448061 226.21081096 156 233 C155.34 233 154.68 233 154 233 C154.04640625 233.71542969 154.0928125 234.43085937 154.140625 235.16796875 C154.52789109 245.85927897 152.43486998 255.75069537 145.7578125 264.31640625 C144.74357685 266.05713463 144.74357685 266.05713463 145.7421875 268.16796875 C146.85470423 270.16343899 146.85470423 270.16343899 149 270.75 C151.89337368 271.05186215 151.89337368 271.05186215 154.375 270.91015625 C161.41763341 270.64815352 161.41763341 270.64815352 165 272.8125 C168.43319713 276.56755936 169.39487764 278.88194581 169.25390625 284.00390625 C168.77012499 287.80717125 166.99279353 290.11273116 164.19921875 292.609375 C160.38371612 295.02201965 156.35876313 294.65593037 152 294 C149.06576805 292.20353146 147.52794645 291.0558929 146 288 C145.93003986 286.29297265 145.91559846 284.58331997 145.9375 282.875 C145.95103516 281.50988281 145.95103516 281.50988281 145.96484375 280.1171875 C145.98224609 279.06917969 145.98224609 279.06917969 146 278 C143.03306695 276.35170386 140.40677593 275.25018511 137 275 C134.90109539 276.19438966 134.90109539 276.19438966 133 278.0625 C129.27886606 281.23512508 125.86411606 282.98021542 121.3125 284.75 C115.12193894 287.44404046 113.25166716 290.1254365 110.48828125 296.125 C105.21527169 306.31118119 95.31505938 311.94909242 85 316 C84.01 316 83.02 316 82 316 C82 319.3 82 322.6 82 326 C83.11375 326.309375 83.11375 326.309375 84.25 326.625 C87.93646177 328.46823088 89.13871846 330.34637327 91 334 C91.62258999 338.35812995 91.31301399 340.40750924 89.25 344.3125 C86.66815845 347.39636629 84.8110584 348.68718082 80.8515625 349.37109375 C76.61860669 349.4973398 73.85657778 349.37350209 70.5 346.625 C66.86573717 342.80902403 66.60759197 340.44389336 66.640625 335.33203125 C67.24705593 331.39682187 69.12287591 329.67161523 72 327 C72.66 327 73.32 327 74 327 C74 323.7 74 320.4 74 317 C72.63875 317.144375 71.2775 317.28875 69.875 317.4375 C62.45801437 317.47994341 56.18520506 313.75616484 50 310 C49.42507813 309.4225 48.85015625 308.845 48.2578125 308.25 C47.84273437 307.8375 47.42765625 307.425 47 307 C44.34533951 307.23043864 44.34533951 307.23043864 42 308 C41.62875 309.8871875 41.62875 309.8871875 41.25 311.8125 C40.55986768 314.50163627 40.12710417 315.84935802 38.3125 318 C34.90068228 319.47538063 32.67704207 319.58058559 29 319 C25.42607063 315.65915298 23.43437997 312.92297294 23 308 C21.24180769 307.18961966 21.24180769 307.18961966 19 307 C16.63612989 308.31785213 16.63612989 308.31785213 14.3125 310.25 C6.28605315 316.13762792 -0.13536348 317.41681563 -10 317 C-10 319.97 -10 322.94 -10 326 C-8.68 326.66 -7.36 327.32 -6 328 C-2.82988672 330.99399588 -2.05568152 332.561508 -1.5 336.9375 C-1.72429864 341.17514217 -3.2258464 343.76348747 -6 347 C-9.02774341 349.37894125 -12.24788617 349.36588928 -16.0390625 349.24609375 C-19.03580677 348.87000831 -20.71401456 347.95941609 -23 346 C-25.61525329 341.94184834 -26.70124748 338.80855413 -26 334 C-24.12711824 330.39296847 -22.9101088 328.4550544 -19.25 326.625 C-18.13625 326.315625 -18.13625 326.315625 -17 326 C-17 322.7 -17 319.4 -17 316 C-17.78375 315.95875 -18.5675 315.9175 -19.375 315.875 C-29.1541159 313.51452375 -38.51161386 306.12316488 -44.1171875 297.890625 C-49 289.6937751 -49 289.6937751 -49 287 C-50.28003906 286.85498047 -50.28003906 286.85498047 -51.5859375 286.70703125 C-55.40663905 285.91578757 -58.20663781 284.55679174 -61.625 282.6875 C-62.73101562 282.09324219 -63.83703125 281.49898437 -64.9765625 280.88671875 C-67.76479704 279.14677394 -69.71582714 277.32542203 -72 275 C-75.07435378 275.18632447 -76.37371096 276.24914064 -79 278 C-79.61505082 280.25490545 -79.61505082 280.25490545 -79.875 282.8125 C-80.69008599 287.63335046 -82.09019574 289.89220687 -86 293 C-86.33 293.33 -86.66 293.66 -87 294 C-92.4653588 294.64190456 -96.64204863 295.03204304 -101.125 291.625 C-104.34135223 287.12210687 -104.84400747 283.46770059 -104 278 C-102.29748281 274.92530477 -100.18773492 272.59386746 -97 271 C-95.54420413 270.90444583 -94.0839204 270.87015309 -92.625 270.875 C-91.85414063 270.87242187 -91.08328125 270.86984375 -90.2890625 270.8671875 C-88 271 -88 271 -85.8515625 271.62890625 C-85.24054688 271.75136719 -84.62953125 271.87382813 -84 272 C-81.72855926 270.14567913 -81.72855926 270.14567913 -80 268 C-81.30267373 263.9351755 -82.79778602 260.03801629 -84.5 256.125 C-87.7862747 248.26314519 -89.35635632 241.55255169 -89 233 C-89.73476563 232.74992188 -90.46953125 232.49984375 -91.2265625 232.2421875 C-100.36364597 228.14980363 -105.6081052 218.52051525 -110 210 C-110.33902344 209.3503125 -110.67804688 208.700625 -111.02734375 208.03125 C-116.98587032 195.46201982 -116.44440322 180.58629838 -112.0703125 167.70703125 C-111 165 -111 165 -109.90625 162.96484375 C-108.78323929 160.53004036 -108.58545897 158.41581361 -108.375 155.75 C-108.30023438 154.85796875 -108.22546875 153.9659375 -108.1484375 153.046875 C-108.09945312 152.37140625 -108.05046875 151.6959375 -108 151 C-110.10483555 151.0330288 -112.2091243 151.10244546 -114.3125 151.1875 C-115.48425781 151.22230469 -116.65601563 151.25710938 -117.86328125 151.29296875 C-121.17550946 151.67381366 -121.17550946 151.67381366 -122.7421875 154.4375 C-123.15726562 155.283125 -123.57234375 156.12875 -124 157 C-128.05815166 159.61525329 -131.19144587 160.70124748 -136 160 C-139.99540274 157.84862929 -142.31318009 156.20549621 -144 152 C-144.65528607 148.20623855 -144.86351149 144.5472585 -142.94921875 141.1171875 C-141.18131514 138.95815478 -139.50974598 137.25487299 -137 136 C-131.6598609 135.64982694 -128.33537781 135.53169775 -124 139 C-123.6184375 139.680625 -123.236875 140.36125 -122.84375 141.0625 C-120.51510667 143.50954892 -118.69809245 143.54791069 -115.40429688 143.70703125 C-114.71400391 143.72121094 -114.02371094 143.73539063 -113.3125 143.75 C-112.61060547 143.77964844 -111.90871094 143.80929687 -111.18554688 143.83984375 C-109.45764576 143.91037033 -107.7288168 143.95747068 -106 144 C-105.87625 143.2575 -105.7525 142.515 -105.625 141.75 C-105 139 -105 139 -103.96484375 137.1015625 C-102.62467979 134.18250093 -102.67954202 131.57414856 -102.5625 128.375 C-101.72668892 115.12533904 -97.36184078 104.58802511 -87.375 95.5 C-79.74576271 89 -79.74576271 89 -76 89 C-76.0825 88.195625 -76.165 87.39125 -76.25 86.5625 C-75.91706018 81.81810753 -74.09835476 78.21544483 -72 74 C-72.680625 73.773125 -73.36125 73.54625 -74.0625 73.3125 C-77 72 -77 72 -79.9375 69.375 C-83.61612808 66.55715465 -86.5907534 66.84929091 -91.125 67.0625 C-97.48193069 67.32596472 -97.48193069 67.32596472 -99.98046875 65.75390625 C-103.64551379 61.27201832 -104.47343228 57.6811873 -104 52 C-101.97333762 48.29609979 -100.51955484 46.34636989 -97 44 C-92.3135743 43.23231884 -88.80309989 43.59114915 -84.5625 45.75 C-80.93703704 48.93333333 -80.93703704 48.93333333 -80 52 C-80 53.258125 -80 54.51625 -80 55.8125 C-79.71676307 59.02452729 -79.15692346 59.85756179 -76.71484375 62.07421875 C-74.19309957 63.82276992 -71.65311663 65.45917001 -69 67 C-65.92134612 65.62038248 -63.75701256 63.99876869 -61.3125 61.6875 C-58.52096229 59.16477703 -55.93700219 57.33935422 -52.5625 55.6875 C-48.71208991 53.69636327 -46.36180782 51.36450043 -43.5625 48.0625 C-35.83217192 39.07716183 -25.07015229 33.77672575 -13.171875 32.7578125 C-11.1130102 32.75133808 -9.05415955 32.86073495 -7 33 C-7 29.7 -7 26.4 -7 23 C-7.763125 22.773125 -8.52625 22.54625 -9.3125 22.3125 C-12.68439721 20.6657595 -13.54704383 19.44121198 -15 16 C-15.5701247 10.77385695 -14.82117855 7.43328058 -12 3 C-8.67399786 -0.69555793 -4.69195412 -0.68365799 0 0 Z " fill="#FAFBFC" transform="translate(480,332)"/>
<path d="M0 0 C0.94726959 -0.00970322 1.89453918 -0.01940643 2.87051392 -0.02940369 C5.96710458 -0.05445406 9.06347402 -0.06696733 12.16015625 -0.07421875 C13.22233368 -0.07683716 14.28451111 -0.07945557 15.37887573 -0.08215332 C56.11285945 -0.09284455 99.55805058 4.01998934 138.25 17.5612793 C141.38731696 18.63798473 144.58932627 19.47828218 147.78515625 20.36328125 C167.81117719 26.08729571 187.51221612 34.12553861 206.22265625 43.23828125 C206.94001953 43.58552246 207.65738281 43.93276367 208.39648438 44.29052734 C219.40753698 49.67721189 231.57526049 55.71759391 237.22265625 67.23828125 C239.49758124 74.80591844 240.83040453 82.30772217 241.41015625 90.17578125 C241.48911133 91.2215332 241.56806641 92.26728516 241.64941406 93.34472656 C243.9499017 128.07113516 242.10585648 162.95743247 236.22265625 197.23828125 C236.07070801 198.13836914 235.91875977 199.03845703 235.76220703 199.96582031 C232.36671508 219.64841787 226.7100847 238.84356775 219.03710938 257.27880859 C218.27629038 259.10924423 217.53767079 260.94886306 216.80078125 262.7890625 C210.13401693 279.02525539 201.26512824 294.27614804 192.33251953 309.35058594 C191.3750313 310.97911629 190.44996403 312.62662894 189.53125 314.27734375 C188.88349609 315.24800781 188.88349609 315.24800781 188.22265625 316.23828125 C187.56265625 316.23828125 186.90265625 316.23828125 186.22265625 316.23828125 C185.96613281 316.95886719 185.70960938 317.67945313 185.4453125 318.421875 C184.14917661 321.40754267 182.60564548 323.69500476 180.66015625 326.30078125 C179.95375 327.25210937 179.24734375 328.2034375 178.51953125 329.18359375 C177.7615625 330.19164062 177.00359375 331.1996875 176.22265625 332.23828125 C175.41506096 333.31878354 174.60777238 334.39951515 173.80078125 335.48046875 C171.61355756 338.40391479 169.41954494 341.32209567 167.22265625 344.23828125 C166.68253906 345.01300781 166.14242188 345.78773438 165.5859375 346.5859375 C164.91111328 347.40384766 164.91111328 347.40384766 164.22265625 348.23828125 C163.56265625 348.23828125 162.90265625 348.23828125 162.22265625 348.23828125 C161.97902344 348.8003125 161.73539063 349.36234375 161.484375 349.94140625 C159.98084689 352.6784791 158.15565877 354.69624066 156.03515625 356.98828125 C153.29285101 359.96591566 150.59124469 362.96480828 147.94921875 366.03125 C144.07410213 370.47234792 139.962851 374.6456483 135.78515625 378.80078125 C135.07294922 379.51685547 134.36074219 380.23292969 133.62695312 380.97070312 C126.9330271 387.65246943 119.96671133 393.79209737 112.3984375 399.46484375 C110.10421588 401.2717356 110.10421588 401.2717356 107.77734375 403.69921875 C103.36034539 408.08920183 98.2415658 411.57306259 93.22265625 415.23828125 C92.53381348 415.74488281 91.8449707 416.25148438 91.13525391 416.7734375 C81.37432425 423.9477316 71.53183048 430.87448449 61.22265625 437.23828125 C60.64515625 437.59841309 60.06765625 437.95854492 59.47265625 438.32958984 C51.87705582 443.05393671 44.1328274 447.43653325 36.22265625 451.61328125 C35.4335083 452.0302124 34.64436035 452.44714355 33.83129883 452.87670898 C23.82238473 458.09666897 14.20922797 462.25439481 2.75 459.1328125 C-10.51863092 454.43649645 -22.3893353 446.91497865 -34.37890625 439.67431641 C-37.48561251 437.81421398 -40.62423865 436.01839965 -43.77734375 434.23828125 C-43.77734375 433.57828125 -43.77734375 432.91828125 -43.77734375 432.23828125 C-44.64359375 431.99078125 -45.50984375 431.74328125 -46.40234375 431.48828125 C-49.98794439 430.16028101 -52.74062362 428.55197277 -55.77734375 426.23828125 C-55.77734375 425.57828125 -55.77734375 424.91828125 -55.77734375 424.23828125 C-57.05738281 423.89990234 -57.05738281 423.89990234 -58.36328125 423.5546875 C-62.30195976 422.03599796 -65.19248565 419.83614286 -68.40234375 417.17578125 C-69.62517146 416.18480115 -70.84915253 415.19524273 -72.07421875 414.20703125 C-72.99364258 413.46259766 -72.99364258 413.46259766 -73.93164062 412.703125 C-77.74004649 409.68058066 -81.70311592 406.8610593 -85.64453125 404.015625 C-86.34835937 403.42910156 -87.0521875 402.84257813 -87.77734375 402.23828125 C-87.77734375 401.57828125 -87.77734375 400.91828125 -87.77734375 400.23828125 C-88.57205078 399.90376953 -88.57205078 399.90376953 -89.3828125 399.5625 C-92.61261804 397.77635958 -95.30367152 395.44546798 -98.08984375 393.05078125 C-98.67016357 392.55610352 -99.2504834 392.06142578 -99.84838867 391.55175781 C-103.44718928 388.45799007 -106.87641752 385.26516771 -110.171875 381.84765625 C-111.96688694 380.04827688 -113.8513829 378.39644183 -115.77734375 376.73828125 C-121.58606861 371.71300676 -126.80595436 366.29967323 -131.81640625 360.484375 C-134.96168847 356.88171111 -138.2094459 353.37279686 -141.4453125 349.8515625 C-147.77734375 342.75586919 -147.77734375 342.75586919 -147.77734375 340.23828125 C-148.43734375 340.23828125 -149.09734375 340.23828125 -149.77734375 340.23828125 C-159.7501976 328.48106874 -167.84400752 314.41029731 -175.77734375 301.23828125 C-176.32648438 300.35785156 -176.875625 299.47742188 -177.44140625 298.5703125 C-205.73286556 252.11064117 -219.65230987 195.54381865 -220.015625 141.37890625 C-220.02369675 140.19141785 -220.03176849 139.00392944 -220.04008484 137.78045654 C-220.05381964 135.27959607 -220.06458841 132.77871768 -220.07250977 130.27783203 C-220.08396775 127.77289148 -220.1043198 125.26797412 -220.1340332 122.76318359 C-220.29021683 109.53730951 -220.06572812 96.57009783 -218.0703125 83.47265625 C-217.92298172 82.46857727 -217.77565094 81.46449829 -217.62385559 80.42999268 C-215.59983682 68.66644983 -209.76593836 60.27017645 -200.40332031 53.06152344 C-196.0424861 50.03375197 -191.34669188 47.87195508 -186.52734375 45.67578125 C-185.50592285 45.20035889 -184.48450195 44.72493652 -183.43212891 44.23510742 C-181.42792508 43.3034795 -179.42165714 42.37627576 -177.41308594 41.45410156 C-175.30747049 40.48281915 -173.21418364 39.4942985 -171.12890625 38.48046875 C-157.29265272 31.83470918 -142.75900308 26.6707251 -128.07421875 22.25390625 C-125.56152851 21.47985476 -123.15031989 20.65413492 -120.71484375 19.67578125 C-114.58972475 17.29527649 -108.14093081 15.83902174 -101.77734375 14.23828125 C-101.12088867 14.07183105 -100.46443359 13.90538086 -99.78808594 13.73388672 C-91.007719 11.52692962 -82.18232853 9.68332442 -73.27734375 8.05078125 C-72.36976318 7.88384766 -71.46218262 7.71691406 -70.52709961 7.54492188 C-66.43916689 6.81443734 -62.37854674 6.16596402 -58.24609375 5.75 C-55.12429388 5.43531764 -52.13431563 4.91588873 -49.0703125 4.2421875 C-42.79275229 2.93279499 -36.47903513 2.57971583 -30.08984375 2.17578125 C-27.73162354 2.02044938 -25.37354417 1.86296154 -23.015625 1.703125 C-21.98477783 1.63730225 -20.95393066 1.57147949 -19.8918457 1.50366211 C-17.75271044 1.32139041 -15.6195026 1.05671658 -13.49853516 0.72412109 C-8.98038203 0.13422969 -4.55165849 0.0388432 0 0 Z M49.22265625 6.23828125 C47.83445023 6.40657151 46.43887673 6.5147197 45.04296875 6.59765625 C-15.04857964 10.67230154 -72.86644421 33.43357311 -116.77734375 75.23828125 C-117.34066406 75.77437012 -117.90398437 76.31045898 -118.484375 76.86279297 C-133.12232802 90.88826322 -144.36956755 105.86271652 -154.77734375 123.23828125 C-155.14956055 123.84655762 -155.52177734 124.45483398 -155.90527344 125.08154297 C-168.47807949 145.82968081 -176.73979079 171.49418703 -180.41796875 195.40234375 C-180.77734375 197.23828125 -180.77734375 197.23828125 -181.77734375 198.23828125 C-183.75360417 210.13358326 -184.14093951 222.01712481 -184.08984375 234.05078125 C-184.08901794 234.87879242 -184.08819214 235.70680359 -184.08734131 236.55990601 C-184.05886349 248.98897383 -183.48641751 261.06523317 -180.77734375 273.23828125 C-180.59655273 274.06376465 -180.41576172 274.88924805 -180.22949219 275.73974609 C-179.75137083 277.90731389 -179.26724388 280.07335034 -178.77734375 282.23828125 C-179.76734375 281.90828125 -180.75734375 281.57828125 -181.77734375 281.23828125 C-178.14894298 299.25069938 -162.94973568 318.15559842 -151.77734375 332.23828125 C-150.90591665 333.37374674 -150.03621018 334.51053422 -149.16796875 335.6484375 C-143.87847942 342.54003178 -138.34586369 349.0870715 -132.40625 355.42578125 C-129.92610237 358.07913384 -127.50244472 360.77358788 -125.08984375 363.48828125 C-119.42224334 369.79121765 -113.51946669 375.68899452 -107.0859375 381.20703125 C-104.77582925 383.2396138 -102.53401096 385.33609694 -100.29467773 387.44604492 C-93.70589598 393.63325086 -86.85184773 399.30905225 -79.66796875 404.7890625 C-77.68304711 406.31056235 -75.71395245 407.85103902 -73.74609375 409.39453125 C-63.74879407 417.19733022 -53.45699133 424.40166411 -42.77734375 431.23828125 C-41.93091309 431.7801709 -41.08448242 432.32206055 -40.21240234 432.88037109 C-28.68453983 440.2197698 -17.03982696 447.19252823 -4.77734375 453.23828125 C-3.36582031 453.94984375 -3.36582031 453.94984375 -1.92578125 454.67578125 C4.96160295 457.82429974 11.87422362 458.95322524 19.22363281 456.59667969 C24.73551927 454.51867577 29.98829096 451.92898643 35.22265625 449.23828125 C35.95258789 448.86380859 36.68251953 448.48933594 37.43457031 448.10351562 C61.64551044 435.49160889 84.40109394 419.86616032 105.22265625 402.23828125 C106.26516762 401.3692427 107.30816153 400.50078277 108.3515625 399.6328125 C119.34693578 390.45500502 129.77882781 380.77716969 139.94534302 370.69082642 C141.36706155 369.28101502 142.79272413 367.87518446 144.21850586 366.46948242 C150.32622305 360.36939919 155.8457941 353.98507379 161.22265625 347.23828125 C162.28311307 345.96746165 163.34769768 344.70006523 164.41796875 343.4375 C180.57463182 324.16815989 194.35465487 302.92222392 205.24316406 280.26220703 C206.2050929 278.27457241 207.19194237 276.30106721 208.18359375 274.328125 C213.83375686 262.91736758 218.1292351 251.07806789 222.2578125 239.04394531 C223.05191652 236.73477441 223.86678285 234.43506197 224.69140625 232.13671875 C229.31006314 218.54720904 231.77996974 204.35095558 234.22265625 190.23828125 C234.5467749 188.40450928 234.5467749 188.40450928 234.87744141 186.53369141 C238.32281456 166.07217029 238.59027378 145.62550101 238.59765625 124.92578125 C238.59965027 123.61398895 238.60164429 122.30219666 238.60369873 120.95065308 C238.60154483 108.43226413 238.49387832 95.92633801 237.44921875 83.4453125 C237.38898529 82.63309738 237.32875183 81.82088226 237.26669312 80.98405457 C236.32424273 71.45315313 232.2593095 63.68743404 225.22265625 57.23828125 C186.87225072 26.62963983 126.45094706 14.91256556 78.84765625 7.23828125 C76.94318726 6.92636841 76.94318726 6.92636841 75.00024414 6.6081543 C61.45568049 3.81492744 61.45568049 3.81492744 49.22265625 6.23828125 Z " fill="#84D4A9" transform="translate(500.77734375,286.76171875)"/>
<path d="M0 0 C4.52555939 2.8205812 7.60322067 6.04296395 10.8125 10.25 C13.19843691 13.03359307 15.28226289 14.54363535 18.5625 16.0625 C28.78755149 21.05171807 33.81512153 28.88553966 37.8125 39.25 C38.1171875 41.7578125 38.1171875 41.7578125 38.125 43.8125 C38.351875 44.946875 38.57875 46.08125 38.8125 47.25 C41.1236376 48.75988148 43.50869972 49.77198657 46.04296875 50.86328125 C53.5769473 54.63558362 58.78024276 61.42409745 61.96875 69.09375 C63.15001444 73.51255401 63.2560067 77.87594398 63.36132812 82.41845703 C63.51898112 86.67811957 64.12202321 89.54085399 66.3125 93.1875 C69.4163887 98.39601978 69.2832634 103.23467136 69.43188477 109.13232422 C69.60318091 114.0597046 70.28696654 117.40248489 72.82421875 121.58203125 C77.92115264 130.18436632 76.43098191 141.6018296 74.25 150.8125 C70.94755999 162.10545919 65.14815154 170.15743225 55.8125 177.25 C54.74257813 177.83007812 53.67265625 178.41015625 52.5703125 179.0078125 C49.46781182 181.0343271 49.46781182 181.0343271 49.18359375 184.68359375 C49.18493292 186.01841204 49.20819851 187.35333573 49.25 188.6875 C49.02140783 200.63144069 45.4562099 209.55876821 37 218.16796875 C36.278125 218.85503906 35.55625 219.54210937 34.8125 220.25 C34.296875 220.76175781 33.78125 221.27351562 33.25 221.80078125 C28.43317457 226.22076595 21.98738487 229.4424233 15.6796875 231.046875 C11.92474014 232.62252049 11.4633827 234.10204611 9.9375 237.8125 C4.95015005 248.64440068 -2.43307537 255.81806214 -13.5625 260.0625 C-21.10376222 262.31710417 -27.92985969 262.13750812 -35.0078125 258.5859375 C-39.46277113 255.85547899 -44.27965641 252.90174779 -46.02734375 247.796875 C-46.21321761 244.84102734 -45.68288874 243.49933138 -44.25 240.9375 C-43.67958984 239.89142578 -43.67958984 239.89142578 -43.09765625 238.82421875 C-42.79730469 238.30472656 -42.49695313 237.78523437 -42.1875 237.25 C-41.5275 237.25 -40.8675 237.25 -40.1875 237.25 C-39.90777344 237.85328125 -39.62804687 238.4565625 -39.33984375 239.078125 C-36.98592641 243.77082195 -34.99269801 247.38058214 -30.12890625 249.66015625 C-22.50199742 251.9773861 -16.12947051 249.53514667 -9.1875 246.25 C-8.08341797 245.74339844 -8.08341797 245.74339844 -6.95703125 245.2265625 C-4.61091281 243.93179515 -4.26970475 242.68496068 -3.1875 240.25 C-2.2284375 238.88875 -2.2284375 238.88875 -1.25 237.5 C3.59265107 229.86915588 4.24054377 223.29534654 4.33984375 214.52148438 C4.50796253 208.64227171 4.50796253 208.64227171 6.17773438 206.49145508 C7.8125 205.25 7.8125 205.25 10.375 205.4375 C12.8125 206.25 12.8125 206.25 14.8125 208.25 C15.0078125 211.2890625 15.0078125 211.2890625 14.9375 214.875 C14.91945313 216.06351563 14.90140625 217.25203125 14.8828125 218.4765625 C14.85960937 219.39179687 14.83640625 220.30703125 14.8125 221.25 C25.79998255 215.82579975 33.62797495 210.14974312 37.8125 198.25 C38.72871329 193.93616243 39.35205309 189.63455415 39.8125 185.25 C39.03390625 185.44335938 38.2553125 185.63671875 37.453125 185.8359375 C29.12508065 187.77403077 21.00632768 188.85595756 12.47949219 189.42724609 C11.65739258 189.49250488 10.83529297 189.55776367 9.98828125 189.625 C9.25520752 189.67398438 8.52213379 189.72296875 7.7668457 189.7734375 C5.3447453 190.36406086 4.4731018 191.44284839 2.8125 193.25 C-0.25704761 193.93978598 -3.10019603 193.81231106 -6.1875 193.25 C-9.23817422 191.25772296 -10.78176669 189.91317126 -11.66015625 186.3125 C-11.9470293 182.42868019 -11.39516662 180.57154831 -9.25 177.25 C-5.63550031 174.88951041 -3.47347193 174.59371501 0.76171875 174.80859375 C2.8125 175.25 2.8125 175.25 4.6875 177.25 C7.18578583 179.60132784 7.90588773 179.65026607 11.25 179.8125 C26.68758345 179.21076624 45.7239016 174.60905202 56.8125 163.25 C62.72567735 155.38275542 65.37003654 147.62204314 65.25 137.8125 C65.24532715 136.9757373 65.2406543 136.13897461 65.23583984 135.27685547 C65.08784074 129.11744543 63.98937847 124.56025671 60.8125 119.25 C58.97237791 115.42431663 58.6592183 112.65907528 58.875 108.4375 C58.97789703 102.46212227 58.4635775 97.10698643 54.203125 92.515625 C52.19645775 89.24633566 52.66369799 86.1905429 52.875 82.5 C53.06821764 74.8135607 52.34465494 70.10769918 47.1171875 64.3984375 C42.82434075 60.3141501 38.17666563 57.66676034 32.81640625 55.1953125 C30.8125 54.25 30.8125 54.25 29.8125 53.25 C29.48849553 51.5475038 29.20347738 49.83752102 28.9375 48.125 C27.58105288 40.41519392 25.18499991 32.35521604 18.5078125 27.61328125 C15.14060324 25.5499913 11.92203802 23.62970857 8.17578125 22.34765625 C5.26416613 20.99531931 4.50732294 19.70094571 2.9375 16.9375 C-1.24952698 10.3000501 -6.30128432 6.97068056 -13.8046875 4.7578125 C-21.80815031 3.05215649 -29.12547214 4.00331993 -36.1875 8.25 C-42.37504207 13.72843373 -45.08060469 19.13574323 -46.1875 27.25 C-46.4250522 31.98255754 -46.5314401 36.72144051 -46.6171875 41.45898438 C-46.66359375 42.89274414 -46.66359375 42.89274414 -46.7109375 44.35546875 C-46.73075684 45.22324951 -46.75057617 46.09103027 -46.77099609 46.98510742 C-47.26313633 49.66130028 -48.10775241 50.56085263 -50.1875 52.25 C-53.6525 50.27 -53.6525 50.27 -57.1875 48.25 C-57.54521548 31.29826109 -57.05834754 15.90247198 -45.125 2.6875 C-32.25763121 -9.52835644 -14.57086904 -8.07334077 0 0 Z " fill="#5999C3" transform="translate(576.1875,379.75)"/>
<path d="M0 0 C8.1687841 5.54365499 12.15982008 13.42092353 14.75390625 22.71484375 C15.08390625 23.70484375 15.41390625 24.69484375 15.75390625 25.71484375 C16.06100422 29.54307265 16.07746901 33.37575552 16.12890625 37.21484375 C16.18498047 38.80232422 16.18498047 38.80232422 16.2421875 40.421875 C16.27475912 43.27008194 16.24520009 45.90877776 15.75390625 48.71484375 C13.48046875 50.99609375 13.48046875 50.99609375 10.75390625 51.71484375 C8.58349609 51.25976562 8.58349609 51.25976562 6.75390625 50.71484375 C6.71950439 49.94930176 6.68510254 49.18375977 6.6496582 48.39501953 C6.47830992 44.87507418 6.27260015 41.35791311 6.06640625 37.83984375 C6.01291016 36.63585937 5.95941406 35.431875 5.90429688 34.19140625 C5.30957219 24.67581125 3.44767821 16.80135348 -3.80859375 10.21484375 C-5.47310313 8.85275809 -5.47310313 8.85275809 -7.24609375 7.71484375 C-7.808125 7.34230469 -8.37015625 6.96976562 -8.94921875 6.5859375 C-15.30881357 4.17405035 -24.75524096 4.55122615 -31.1875 6.6953125 C-33.36980608 7.89539622 -35.29012496 9.17769288 -37.24609375 10.71484375 C-38.57640625 11.61203125 -38.57640625 11.61203125 -39.93359375 12.52734375 C-42.02845698 14.50897113 -43.33685664 16.28385036 -44.93359375 18.65234375 C-47.32867221 22.00175938 -49.36284353 23.49480001 -53.12109375 25.15234375 C-59.66771446 28.11461556 -64.41858907 32.61564923 -67.37109375 39.23828125 C-68.66506326 43.28193597 -69.24801504 46.73719689 -69.18359375 50.96484375 C-70.24609375 54.71484375 -70.24609375 54.71484375 -72.7265625 56.33203125 C-74.85524583 57.35274152 -77.00076545 58.33893861 -79.16015625 59.29296875 C-85.36080403 62.14997608 -89.77748484 66.16654618 -92.59765625 72.43359375 C-94.05123091 77.5473745 -93.93612376 83.17445393 -92.546875 88.2890625 C-92.24609375 90.71484375 -92.24609375 90.71484375 -93.42578125 92.84765625 C-93.98523438 93.50507813 -94.5446875 94.1625 -95.12109375 94.83984375 C-98.59205506 98.98885332 -99.31415068 101.82345328 -99.48632812 107.26269531 C-99.72544264 114.34242373 -100.48266248 119.59926794 -104.24609375 125.71484375 C-107.30054812 135.5577923 -106.29986964 148.03765451 -101.78515625 157.16796875 C-93.51227378 170.85811944 -81.00495238 174.96157778 -66.24609375 178.71484375 C-62.20338215 179.68558605 -58.3416168 179.94284916 -54.18359375 180.02734375 C-52.37181641 180.08341797 -52.37181641 180.08341797 -50.5234375 180.140625 C-46.61846132 179.6333039 -45.80821854 178.55858139 -43.24609375 175.71484375 C-38.43525754 175.10394391 -36.40319445 174.97626883 -32.30859375 177.58984375 C-30.19429106 179.76821622 -29.29023562 180.72069206 -29.15625 183.73828125 C-29.44478528 188.19208225 -29.59530899 190.09432804 -32.93359375 193.27734375 C-36.50587664 194.82757972 -38.41484254 195.36697161 -42.24609375 194.71484375 C-42.97699219 194.05613281 -43.70789063 193.39742187 -44.4609375 192.71875 C-48.05574796 190.13230152 -50.35141926 190.21722576 -54.74609375 190.15234375 C-63.47418653 189.86939566 -72.46847571 188.99253367 -80.24609375 184.71484375 C-78.99622973 196.27608597 -77.31105456 206.68478333 -68.24609375 214.71484375 C-64.12062433 217.5659872 -60.01537615 220.12508295 -55.24609375 221.71484375 C-55.29830078 220.35939453 -55.29830078 220.35939453 -55.3515625 218.9765625 C-55.37863281 217.79707031 -55.40570313 216.61757813 -55.43359375 215.40234375 C-55.48580078 213.64470703 -55.48580078 213.64470703 -55.5390625 211.8515625 C-55.24609375 208.71484375 -55.24609375 208.71484375 -53.8984375 206.78125 C-52.24609375 205.71484375 -52.24609375 205.71484375 -49.62109375 205.96484375 C-47.24609375 206.71484375 -47.24609375 206.71484375 -46.24609375 207.71484375 C-46.11119984 209.98405911 -46.0141538 212.25555045 -45.93359375 214.52734375 C-45.31624349 225.95581904 -42.13835573 237.23548225 -33.55078125 245.30859375 C-28.23067628 249.4119931 -22.90508597 250.99232831 -16.18359375 250.58984375 C-11.58089751 249.95522957 -8.68990671 248.99847936 -5.24609375 245.71484375 C-3.33209697 242.48084919 -1.73355644 239.16365106 -0.24609375 235.71484375 C3.23329657 237.45453891 4.43420223 241.18446803 5.75390625 244.71484375 C5.75390625 249.14580679 3.79115484 251.59971699 0.75390625 254.71484375 C-7.72884577 260.8032706 -15.98122702 262.03910667 -26.24609375 260.71484375 C-36.96764294 257.41684167 -44.47583995 250.15868385 -50.23828125 240.76953125 C-51.24609375 238.71484375 -51.24609375 238.71484375 -52.03125 235.59765625 C-52.96073584 232.51790115 -52.96073584 232.51790115 -55.75 231.46484375 C-56.75933594 231.21734375 -57.76867187 230.96984375 -58.80859375 230.71484375 C-64.85081382 228.95855251 -69.33349747 226.62021526 -74.24609375 222.71484375 C-75.16841797 221.99748047 -75.16841797 221.99748047 -76.109375 221.265625 C-82.58697502 215.56361346 -86.5459444 206.8152918 -89.24609375 198.71484375 C-89.22756558 196.73027084 -89.20807607 194.74569374 -89.18017578 192.76123047 C-89.05306881 185.48985243 -89.05306881 185.48985243 -92.2890625 179.28515625 C-94.87425408 177.58776874 -97.50276363 176.13957919 -100.24609375 174.71484375 C-108.1368538 169.03540557 -113.32822329 158.4538803 -115.953125 149.23046875 C-117.34321128 137.29426121 -117.1030565 126.00028788 -110.24609375 115.71484375 C-110.04678106 113.36580136 -109.93342653 111.00900247 -109.87109375 108.65234375 C-109.60420126 102.38491965 -108.96257084 94.43132084 -104.24609375 89.71484375 C-104.18889389 87.87385563 -104.13633654 86.03258993 -104.10888672 84.19091797 C-103.87148417 73.38794935 -101.43986588 64.88426253 -93.87109375 56.77734375 C-89.56136385 52.86027813 -84.78629086 49.56157612 -79.24609375 47.71484375 C-79.15328125 45.79671875 -79.15328125 45.79671875 -79.05859375 43.83984375 C-78.01705292 34.75132994 -72.9929474 26.76240738 -66.24609375 20.71484375 C-62.12550833 17.83607859 -58.02542241 15.3079533 -53.24609375 13.71484375 C-52.1923989 12.38054537 -51.20016602 10.99710034 -50.24609375 9.58984375 C-46.11411277 4.10383095 -41.24338719 0.94079314 -35.24609375 -2.28515625 C-34.58867187 -2.64738281 -33.93125 -3.00960938 -33.25390625 -3.3828125 C-22.54762398 -8.32240625 -9.81556212 -5.61620859 0 0 Z " fill="#5DAEB7" transform="translate(490.24609375,379.28515625)"/>
<path d="M0 0 C0.94726959 -0.00970322 1.89453918 -0.01940643 2.87051392 -0.02940369 C5.96710458 -0.05445406 9.06347402 -0.06696733 12.16015625 -0.07421875 C13.22233368 -0.07683716 14.28451111 -0.07945557 15.37887573 -0.08215332 C56.11285945 -0.09284455 99.55805058 4.01998934 138.25 17.5612793 C141.38731696 18.63798473 144.58932627 19.47828218 147.78515625 20.36328125 C167.81117719 26.08729571 187.51221612 34.12553861 206.22265625 43.23828125 C206.94001953 43.58552246 207.65738281 43.93276367 208.39648438 44.29052734 C219.40753698 49.67721189 231.57526049 55.71759391 237.22265625 67.23828125 C239.49758124 74.80591844 240.83040453 82.30772217 241.41015625 90.17578125 C241.48911133 91.2215332 241.56806641 92.26728516 241.64941406 93.34472656 C243.9499017 128.07113516 242.10585648 162.95743247 236.22265625 197.23828125 C236.07070801 198.13836914 235.91875977 199.03845703 235.76220703 199.96582031 C232.36671508 219.64841787 226.7100847 238.84356775 219.03710938 257.27880859 C218.27629038 259.10924423 217.53767079 260.94886306 216.80078125 262.7890625 C210.13401693 279.02525539 201.26512824 294.27614804 192.33251953 309.35058594 C191.3750313 310.97911629 190.44996403 312.62662894 189.53125 314.27734375 C188.88349609 315.24800781 188.88349609 315.24800781 188.22265625 316.23828125 C187.56265625 316.23828125 186.90265625 316.23828125 186.22265625 316.23828125 C185.96613281 316.95886719 185.70960938 317.67945313 185.4453125 318.421875 C184.14917661 321.40754267 182.60564548 323.69500476 180.66015625 326.30078125 C179.95375 327.25210937 179.24734375 328.2034375 178.51953125 329.18359375 C177.7615625 330.19164062 177.00359375 331.1996875 176.22265625 332.23828125 C175.41506096 333.31878354 174.60777238 334.39951515 173.80078125 335.48046875 C171.61355756 338.40391479 169.41954494 341.32209567 167.22265625 344.23828125 C166.68253906 345.01300781 166.14242188 345.78773438 165.5859375 346.5859375 C164.91111328 347.40384766 164.91111328 347.40384766 164.22265625 348.23828125 C163.56265625 348.23828125 162.90265625 348.23828125 162.22265625 348.23828125 C161.97902344 348.8003125 161.73539063 349.36234375 161.484375 349.94140625 C159.98084689 352.6784791 158.15565877 354.69624066 156.03515625 356.98828125 C153.29285101 359.96591566 150.59124469 362.96480828 147.94921875 366.03125 C144.07410213 370.47234792 139.962851 374.6456483 135.78515625 378.80078125 C135.07294922 379.51685547 134.36074219 380.23292969 133.62695312 380.97070312 C126.9330271 387.65246943 119.96671133 393.79209737 112.3984375 399.46484375 C110.10421588 401.2717356 110.10421588 401.2717356 107.77734375 403.69921875 C103.36034539 408.08920183 98.2415658 411.57306259 93.22265625 415.23828125 C92.53381348 415.74488281 91.8449707 416.25148438 91.13525391 416.7734375 C81.37432425 423.9477316 71.53183048 430.87448449 61.22265625 437.23828125 C60.64515625 437.59841309 60.06765625 437.95854492 59.47265625 438.32958984 C51.87705582 443.05393671 44.1328274 447.43653325 36.22265625 451.61328125 C35.4335083 452.0302124 34.64436035 452.44714355 33.83129883 452.87670898 C23.82238473 458.09666897 14.20922797 462.25439481 2.75 459.1328125 C-10.51863092 454.43649645 -22.3893353 446.91497865 -34.37890625 439.67431641 C-37.48561251 437.81421398 -40.62423865 436.01839965 -43.77734375 434.23828125 C-43.77734375 433.57828125 -43.77734375 432.91828125 -43.77734375 432.23828125 C-44.64359375 431.99078125 -45.50984375 431.74328125 -46.40234375 431.48828125 C-49.98794439 430.16028101 -52.74062362 428.55197277 -55.77734375 426.23828125 C-55.77734375 425.57828125 -55.77734375 424.91828125 -55.77734375 424.23828125 C-57.05738281 423.89990234 -57.05738281 423.89990234 -58.36328125 423.5546875 C-62.30195976 422.03599796 -65.19248565 419.83614286 -68.40234375 417.17578125 C-69.62517146 416.18480115 -70.84915253 415.19524273 -72.07421875 414.20703125 C-72.99364258 413.46259766 -72.99364258 413.46259766 -73.93164062 412.703125 C-77.74004649 409.68058066 -81.70311592 406.8610593 -85.64453125 404.015625 C-86.34835937 403.42910156 -87.0521875 402.84257813 -87.77734375 402.23828125 C-87.77734375 401.57828125 -87.77734375 400.91828125 -87.77734375 400.23828125 C-88.57205078 399.90376953 -88.57205078 399.90376953 -89.3828125 399.5625 C-92.61261804 397.77635958 -95.30367152 395.44546798 -98.08984375 393.05078125 C-98.67016357 392.55610352 -99.2504834 392.06142578 -99.84838867 391.55175781 C-103.44718928 388.45799007 -106.87641752 385.26516771 -110.171875 381.84765625 C-111.96688694 380.04827688 -113.8513829 378.39644183 -115.77734375 376.73828125 C-121.58606861 371.71300676 -126.80595436 366.29967323 -131.81640625 360.484375 C-134.96168847 356.88171111 -138.2094459 353.37279686 -141.4453125 349.8515625 C-147.77734375 342.75586919 -147.77734375 342.75586919 -147.77734375 340.23828125 C-148.43734375 340.23828125 -149.09734375 340.23828125 -149.77734375 340.23828125 C-159.7501976 328.48106874 -167.84400752 314.41029731 -175.77734375 301.23828125 C-176.32648438 300.35785156 -176.875625 299.47742188 -177.44140625 298.5703125 C-205.73286556 252.11064117 -219.65230987 195.54381865 -220.015625 141.37890625 C-220.02369675 140.19141785 -220.03176849 139.00392944 -220.04008484 137.78045654 C-220.05381964 135.27959607 -220.06458841 132.77871768 -220.07250977 130.27783203 C-220.08396775 127.77289148 -220.1043198 125.26797412 -220.1340332 122.76318359 C-220.29021683 109.53730951 -220.06572812 96.57009783 -218.0703125 83.47265625 C-217.92298172 82.46857727 -217.77565094 81.46449829 -217.62385559 80.42999268 C-215.59983682 68.66644983 -209.76593836 60.27017645 -200.40332031 53.06152344 C-196.0424861 50.03375197 -191.34669188 47.87195508 -186.52734375 45.67578125 C-185.50592285 45.20035889 -184.48450195 44.72493652 -183.43212891 44.23510742 C-181.42792508 43.3034795 -179.42165714 42.37627576 -177.41308594 41.45410156 C-175.30747049 40.48281915 -173.21418364 39.4942985 -171.12890625 38.48046875 C-157.29265272 31.83470918 -142.75900308 26.6707251 -128.07421875 22.25390625 C-125.56152851 21.47985476 -123.15031989 20.65413492 -120.71484375 19.67578125 C-114.58972475 17.29527649 -108.14093081 15.83902174 -101.77734375 14.23828125 C-101.12088867 14.07183105 -100.46443359 13.90538086 -99.78808594 13.73388672 C-91.007719 11.52692962 -82.18232853 9.68332442 -73.27734375 8.05078125 C-72.36976318 7.88384766 -71.46218262 7.71691406 -70.52709961 7.54492188 C-66.43916689 6.81443734 -62.37854674 6.16596402 -58.24609375 5.75 C-55.12429388 5.43531764 -52.13431563 4.91588873 -49.0703125 4.2421875 C-42.79275229 2.93279499 -36.47903513 2.57971583 -30.08984375 2.17578125 C-27.73162354 2.02044938 -25.37354417 1.86296154 -23.015625 1.703125 C-21.98477783 1.63730225 -20.95393066 1.57147949 -19.8918457 1.50366211 C-17.75271044 1.32139041 -15.6195026 1.05671658 -13.49853516 0.72412109 C-8.98038203 0.13422969 -4.55165849 0.0388432 0 0 Z M-60.58984375 7.98828125 C-61.35149841 8.11833557 -62.11315308 8.24838989 -62.89788818 8.38238525 C-105.65238466 15.70182034 -176.76504643 28.88216273 -207.48828125 63.38671875 C-212.85323332 71.09274082 -213.8716694 80.10083414 -214.77734375 89.23828125 C-214.86564453 90.04998779 -214.95394531 90.86169434 -215.04492188 91.69799805 C-216.06072898 102.45132486 -215.92792736 113.22862379 -215.90771484 124.01977539 C-215.90238346 127.40059959 -215.90767014 130.78128935 -215.9140625 134.16210938 C-215.92898382 179.37226482 -208.10044861 222.33882678 -190.77734375 264.23828125 C-190.50245117 264.92277344 -190.22755859 265.60726563 -189.94433594 266.3125 C-180.55460404 289.65498369 -167.35662713 312.48691859 -151.77734375 332.23828125 C-150.90363523 333.37790106 -150.03129763 334.51857288 -149.16015625 335.66015625 C-143.87233994 342.54696592 -138.34259066 349.09056445 -132.40625 355.42578125 C-129.92610237 358.07913384 -127.50244472 360.77358788 -125.08984375 363.48828125 C-119.42224334 369.79121765 -113.51946669 375.68899452 -107.0859375 381.20703125 C-104.77582925 383.2396138 -102.53401096 385.33609694 -100.29467773 387.44604492 C-93.70589598 393.63325086 -86.85184773 399.30905225 -79.66796875 404.7890625 C-77.68304711 406.31056235 -75.71395245 407.85103902 -73.74609375 409.39453125 C-63.74879407 417.19733022 -53.45699133 424.40166411 -42.77734375 431.23828125 C-41.93091309 431.7801709 -41.08448242 432.32206055 -40.21240234 432.88037109 C-28.68453983 440.2197698 -17.03982696 447.19252823 -4.77734375 453.23828125 C-3.36582031 453.94984375 -3.36582031 453.94984375 -1.92578125 454.67578125 C4.96160295 457.82429974 11.87422362 458.95322524 19.22363281 456.59667969 C24.73551927 454.51867577 29.98829096 451.92898643 35.22265625 449.23828125 C35.95258789 448.86380859 36.68251953 448.48933594 37.43457031 448.10351562 C61.64551044 435.49160889 84.40109394 419.86616032 105.22265625 402.23828125 C106.26516762 401.3692427 107.30816153 400.50078277 108.3515625 399.6328125 C119.34693578 390.45500502 129.77882781 380.77716969 139.94534302 370.69082642 C141.36706155 369.28101502 142.79272413 367.87518446 144.21850586 366.46948242 C150.32622305 360.36939919 155.8457941 353.98507379 161.22265625 347.23828125 C162.28311307 345.96746165 163.34769768 344.70006523 164.41796875 343.4375 C180.57463182 324.16815989 194.35465487 302.92222392 205.24316406 280.26220703 C206.2050929 278.27457241 207.19194237 276.30106721 208.18359375 274.328125 C213.83375686 262.91736758 218.1292351 251.07806789 222.2578125 239.04394531 C223.05191652 236.73477441 223.86678285 234.43506197 224.69140625 232.13671875 C229.31006314 218.54720904 231.77996974 204.35095558 234.22265625 190.23828125 C234.5467749 188.40450928 234.5467749 188.40450928 234.87744141 186.53369141 C238.32281456 166.07217029 238.59027378 145.62550101 238.59765625 124.92578125 C238.59965027 123.61398895 238.60164429 122.30219666 238.60369873 120.95065308 C238.60154483 108.43226413 238.49387832 95.92633801 237.44921875 83.4453125 C237.38898529 82.63309738 237.32875183 81.82088226 237.26669312 80.98405457 C236.32424273 71.45315313 232.2593095 63.68743404 225.22265625 57.23828125 C187.09764414 26.80953326 127.00576918 15.01365075 79.66015625 7.36328125 C78.49943604 7.17209717 77.33871582 6.98091309 76.14282227 6.78393555 C54.94002225 3.57077131 33.50815695 2.90233832 12.09619141 2.97753906 C8.45979315 2.98831938 4.82388412 2.97752597 1.1875 2.96484375 C-19.65859485 2.95041586 -40.05206123 4.41661804 -60.58984375 7.98828125 Z " fill="#F7F9FA" transform="translate(500.77734375,286.76171875)"/>
<path d="M0 0 C4.67116216 3.09248235 6.5683284 7.65359244 7.73046875 12.99609375 C7.88128906 13.84300781 8.03210938 14.68992187 8.1875 15.5625 C9.05731107 20.40221798 10.2428356 23.52072378 13.1875 27.5 C14.93040409 28.71223476 14.93040409 28.71223476 16.83203125 29.6953125 C17.93933594 30.29085938 19.04664063 30.88640625 20.1875 31.5 C20.36176756 35.41610484 20.46834155 39.33121497 20.5625 43.25 C20.61277344 44.36117187 20.66304688 45.47234375 20.71484375 46.6171875 C20.77028808 49.68510728 20.74774851 52.48220042 20.1875 55.5 C17.4177571 58.2540725 15.7478702 59.20213599 11.95703125 59.92578125 C8.83294262 59.74494578 6.16929518 59.49393173 3.1875 58.5 C2.23875 58.974375 1.29 59.44875 0.3125 59.9375 C-5.0292962 62.4311008 -11.05293685 62.07972074 -16.8125 61.5 C-19.20703125 60.48046875 -19.20703125 60.48046875 -20.8125 59.5 C-20.8125 58.51 -20.8125 57.52 -20.8125 56.5 C-19.3275 55.73816406 -19.3275 55.73816406 -17.8125 54.9609375 C-5.70496288 49.53703961 -5.70496288 49.53703961 3.1875 40.5 C2.17171875 41.16386719 1.1559375 41.82773437 0.109375 42.51171875 C-23.49289838 57.74363606 -23.49289838 57.74363606 -35.8125 55.5 C-39 53.6875 -39 53.6875 -40.8125 51.5 C-40.8125 50.51 -40.8125 49.52 -40.8125 48.5 C-39.75933594 48.1596875 -38.70617187 47.819375 -37.62109375 47.46875 C-21.0029691 42.18546256 -21.0029691 42.18546256 -6.8125 32.5 C-10.55243388 33.92264151 -14.13613914 35.58386767 -17.73754883 37.31835938 C-40.31005167 48.15997432 -40.31005167 48.15997432 -51.8125 46.5 C-54.62121209 45.50146547 -55.63502465 44.67747535 -57.8125 42.5 C-58.45703125 39.85546875 -58.45703125 39.85546875 -58.8125 37.5 C-58.12849121 37.31937012 -57.44448242 37.13874023 -56.73974609 36.95263672 C-39.10324417 32.29331423 -39.10324417 32.29331423 -22.19140625 25.56640625 C-19.8125 24.5 -19.8125 24.5 -17.8125 24.5 C-17.8125 23.84 -17.8125 23.18 -17.8125 22.5 C-18.42657715 22.73187012 -19.0406543 22.96374023 -19.67333984 23.20263672 C-22.5084871 24.26801318 -25.34790353 25.32154252 -28.1875 26.375 C-29.15300781 26.73980469 -30.11851562 27.10460937 -31.11328125 27.48046875 C-42.57276718 31.71048034 -56.72970812 35.61958506 -68.76953125 31.484375 C-72.46594805 29.50180573 -74.46048472 28.02802292 -76.8125 24.5 C-76.8125 23.51 -76.8125 22.52 -76.8125 21.5 C-72.34625705 19.85092568 -68.16137399 19.045437 -63.4375 18.5 C-48.75962524 16.66104583 -36.80739817 11.28136111 -24.04345703 3.97851562 C-16.31915924 -0.43149785 -8.73693921 -4.24634035 0 0 Z " fill="#62BEB3" transform="translate(481.8125,436.5)"/>
<path d="M0 0 C12.78017712 7.40460817 25.02497769 10.95345667 39.81787109 11.79418945 C42.24365234 12.00512695 42.24365234 12.00512695 45.24365234 13.00512695 C45.68115234 15.19262695 45.68115234 15.19262695 45.24365234 18.00512695 C38.33646651 24.70806804 30.45937662 24.41806756 21.38037109 24.28637695 C9.40471417 23.83994053 -1.79824864 19.58351079 -12.75634766 15.00512695 C-12.75634766 15.66512695 -12.75634766 16.32512695 -12.75634766 17.00512695 C-11.88107422 17.28743164 -11.00580078 17.56973633 -10.10400391 17.8605957 C-7.06718712 18.89885395 -4.1537403 20.08131805 -1.19384766 21.31762695 C7.9966905 24.90834884 17.62814934 26.88456148 27.24365234 29.00512695 C27.85302734 30.8684082 27.85302734 30.8684082 28.24365234 33.00512695 C25.40855557 36.54899792 23.08121519 37.74261798 18.59130859 38.3840332 C3.0369807 39.25330004 -11.35902912 31.19393202 -24.75634766 24.00512695 C-24.75634766 24.66512695 -24.75634766 25.32512695 -24.75634766 26.00512695 C-23.74894531 26.38217773 -23.74894531 26.38217773 -22.72119141 26.7668457 C-19.84587485 27.96773549 -17.10122372 29.33837843 -14.33642578 30.77270508 C-6.3315228 34.9185164 1.66925567 38.21844804 10.24365234 41.00512695 C9.93505859 42.89575195 9.93505859 42.89575195 9.24365234 45.00512695 C4.3833746 47.78242852 -0.14837406 48.99590102 -5.75634766 48.00512695 C-14.29892903 45.43116139 -21.49798712 40.83191629 -28.82275391 35.89575195 C-31.64753648 33.9035577 -31.64753648 33.9035577 -34.75634766 33.00512695 C-30.97751087 37.11097847 -27.06690179 39.89679005 -22.25634766 42.69262695 C-21.60537109 43.08256836 -20.95439453 43.47250977 -20.28369141 43.87426758 C-16.85918833 45.89783758 -13.51401544 47.65381181 -9.75634766 49.00512695 C-10.56884766 50.94262695 -10.56884766 50.94262695 -11.75634766 53.00512695 C-17.9315088 55.063514 -25.37350088 55.05023519 -31.31884766 52.44262695 C-32.12322266 51.96825195 -32.92759766 51.49387695 -33.75634766 51.00512695 C-35.74126407 51.27188899 -35.74126407 51.27188899 -37.75634766 52.00512695 C-43.48527892 52.53558355 -46.24225484 51.55191417 -50.75634766 48.00512695 C-51.75634766 47.00512695 -51.75634766 47.00512695 -51.86987305 44.68847656 C-51.86463623 43.68824463 -51.85939941 42.6880127 -51.85400391 41.6574707 C-51.85078125 40.57788086 -51.84755859 39.49829102 -51.84423828 38.38598633 C-51.83585938 37.24967773 -51.82748047 36.11336914 -51.81884766 34.94262695 C-51.81433594 33.80245117 -51.80982422 32.66227539 -51.80517578 31.48754883 C-51.79334513 28.66002344 -51.77686175 25.83260055 -51.75634766 23.00512695 C-51.20567627 22.75698242 -50.65500488 22.50883789 -50.08764648 22.25317383 C-49.36601318 21.91350586 -48.64437988 21.57383789 -47.90087891 21.22387695 C-47.18520752 20.89323242 -46.46953613 20.56258789 -45.73217773 20.22192383 C-41.35622084 17.52703082 -40.19259691 12.79234163 -39.02978516 8.02856445 C-38.79517578 6.98958008 -38.56056641 5.9505957 -38.31884766 4.88012695 C-37.07815987 -0.43135807 -35.80832024 -3.32880262 -31.75634766 -6.99487305 C-20.95162329 -13.41930375 -9.34252432 -5.43120441 0 0 Z " fill="#54ABC2" transform="translate(574.75634765625,443.994873046875)"/>
<path d="M0 0 C2.75337251 1.75214614 4.23039316 2.87963152 5.75 5.75 C6.25 8.3125 6.25 8.3125 5.75 10.75 C2.02607077 14.22566728 -2.2852974 14.23740013 -7.140625 14.5390625 C-9.23470042 14.52362115 -9.23470042 14.52362115 -10.25 15.75 C-10.61459462 19.541784 -10.62563219 22.01580981 -8.875 25.4375 C-2.62122461 30.94677832 6.16319535 32.48913893 14.125 34.1875 C37.46157893 39.4825786 37.46157893 39.4825786 43.9921875 48.45703125 C47.77400193 54.86003431 47.7163205 61.42571578 46.125 68.546875 C43.89424812 75.59764434 40.12998953 81.64321306 34.75 86.75 C32.5 87.5234375 32.5 87.5234375 30.75 87.75 C27.72986577 82.55536913 27.72986577 82.55536913 27.8125 79.25 C29.00799178 76.06202193 30.81077063 73.53764222 32.75 70.75 C34.00219121 66.99342637 34.34228341 63.64426341 33.75 59.75 C30.54322421 53.45978596 25.32156795 52.03696894 18.83984375 49.89453125 C14.48654864 48.61377458 10.06807109 47.71990751 5.625 46.8125 C-6.87604702 44.22348678 -16.60833586 39.57553412 -24.1875 29.0625 C-26.12450164 23.02361253 -26.71018855 15.75262596 -23.75 9.9375 C-18.04610368 1.61676236 -10.14238542 -3.90091747 0 0 Z " fill="#50A1C2" transform="translate(494.25,503.25)"/>
<path d="M0 0 C3.91526369 0.95645282 6.28191658 3.00739713 8.359375 6.3984375 C9.35497165 8.87166176 9.37775012 10.4046652 9.09765625 13.04296875 C9.03320312 13.79578125 8.96875 14.54859375 8.90234375 15.32421875 C8.22265625 17.54296875 8.22265625 17.54296875 6.21429443 19.20574951 C3.50413307 22.38616718 3.64867233 25.16537694 3.67675781 29.15722656 C3.66642014 29.91858917 3.65608246 30.67995178 3.64543152 31.46438599 C3.61598789 33.97517072 3.61450407 36.48514989 3.61328125 38.99609375 C3.59830059 40.73917174 3.58157368 42.48223553 3.56317139 44.22528076 C3.51947257 48.80868174 3.49949324 53.39189123 3.48443604 57.97546387 C3.46487403 62.65433079 3.42290302 67.33299065 3.3828125 72.01171875 C3.30748303 81.18873825 3.25720817 90.36571147 3.22265625 99.54296875 C1.61770058 99.42854414 0.01367506 99.30102181 -1.58984375 99.16796875 C-2.48316406 99.09835937 -3.37648438 99.02875 -4.296875 98.95703125 C-6.77734375 98.54296875 -6.77734375 98.54296875 -9.77734375 96.54296875 C-10.14915466 93.48881531 -10.14915466 93.48881531 -10.14624023 89.51049805 C-10.15000671 88.78671967 -10.15377319 88.06294128 -10.15765381 87.31723022 C-10.16409723 85.74304691 -10.16374598 84.16882472 -10.1574688 82.59464073 C-10.14838168 80.10187586 -10.15855537 77.609867 -10.17408752 75.11714172 C-10.21424854 68.02936027 -10.21539205 60.94163602 -10.21313477 53.85375977 C-10.21308363 49.52004371 -10.23226981 45.18673332 -10.26246834 40.85312843 C-10.27329485 38.39951518 -10.2611606 35.94667621 -10.24864197 33.49308777 C-10.25754837 31.98325843 -10.26762345 30.47343539 -10.27905273 28.96362305 C-10.27888657 27.64839157 -10.2787204 26.3331601 -10.27854919 24.97807312 C-10.85623648 20.99964934 -12.1073646 19.46366182 -14.77734375 16.54296875 C-15.55188791 13.12429107 -15.44449996 9.98051939 -14.77734375 6.54296875 C-10.40643793 0.87260444 -6.89585982 -0.95308632 0 0 Z " fill="#58B3BE" transform="translate(515.77734375,435.45703125)"/>
<path d="M0 0 C4.29 0.99 8.58 1.98 13 3 C12.175 4.299375 11.35 5.59875 10.5 6.9375 C7.83706184 11.77782634 6.97198069 15.54955799 8 21 C11.13458431 31.06754725 19.37600985 35.44438987 28.1328125 40.2890625 C33.58659029 43.54349666 37.67408006 46.95013378 40 53 C41.145952 60.76700799 38.1228624 66.746155 33.5546875 72.96875 C32.41418952 74.35038184 31.21372995 75.68223606 30 77 C30.66 78.32 31.32 79.64 32 81 C31.01 80.67 30.02 80.34 29 80 C27.74889868 73.61938326 27.74889868 73.61938326 28.9375 70.6875 C30.71693542 66.18657512 30.98651644 60.57941503 29.23779297 56.00708008 C27.74106513 53.58013736 26.43708212 52.81204568 23.9296875 51.484375 C23.11902832 51.042146 22.30836914 50.59991699 21.47314453 50.14428711 C20.18706299 49.45411499 20.18706299 49.45411499 18.875 48.75 C5.56886415 41.29762356 5.56886415 41.29762356 1 35 C0.48179687 34.30132813 -0.03640625 33.60265625 -0.5703125 32.8828125 C-5.28410297 25.2325624 -4.96425036 16.66118687 -4 8 C-2.98946523 4.81226155 -1.89408447 2.78193657 0 0 Z " fill="#5297C7" transform="translate(490,552)"/>
<path d="M0 0 C5.90498157 2.38121318 10.43474311 6.79398475 14 12 C15.85551711 17.56655132 15.57643843 23.11056293 13.875 28.6875 C10.14605271 35.27530687 6.00626904 39.94271897 -1 43 C-5.0181174 42.62453657 -7.8900156 41.13627203 -11.3125 39.0625 C-12.19550781 38.53785156 -13.07851563 38.01320313 -13.98828125 37.47265625 C-14.65214844 36.98667969 -15.31601562 36.50070312 -16 36 C-16 35.34 -16 34.68 -16 34 C-14.51886719 33.31164062 -14.51886719 33.31164062 -13.0078125 32.609375 C-11.71323301 31.99022829 -10.41897893 31.37040086 -9.125 30.75 C-8.47402344 30.44964844 -7.82304688 30.14929688 -7.15234375 29.83984375 C-4.43582583 28.5235928 -2.33835146 27.4607339 -0.53125 25 C0.29733337 21.88062732 -0.39941137 19.12306089 -1 16 C-1.74765625 15.96261719 -2.4953125 15.92523437 -3.265625 15.88671875 C-4.74289062 15.78810547 -4.74289062 15.78810547 -6.25 15.6875 C-7.22453125 15.62949219 -8.1990625 15.57148437 -9.203125 15.51171875 C-12.30033106 14.94505116 -13.76022257 14.18756816 -16 12 C-16.5625 9.125 -16.5625 9.125 -16 6 C-11.13742182 0.24168373 -7.33412722 -1.02091051 0 0 Z " fill="#4F9FC3" transform="translate(542,502)"/>
<path d="M0 0 C3.15893678 0.84534928 4.27710577 1.67635126 5.94140625 4.51953125 C6.72935871 8.61135453 7.12344442 12.63578844 4.8359375 16.28125 C2.16485777 18.78046401 -0.11368384 19.52807971 -3.68359375 20.08203125 C-7.05859375 19.51953125 -7.05859375 19.51953125 -8.60546875 17.5234375 C-12.52034329 14.32545877 -16.77789027 14.920906 -21.68359375 14.89453125 C-23.59257842 14.86907812 -25.5014784 14.83562077 -27.41015625 14.79296875 C-28.67593506 14.78402588 -28.67593506 14.78402588 -29.96728516 14.77490234 C-32.05859375 14.51953125 -32.05859375 14.51953125 -34.05859375 12.51953125 C-34.30859375 10.01953125 -34.30859375 10.01953125 -34.05859375 7.51953125 C-32.05859375 5.51953125 -32.05859375 5.51953125 -29.90380859 5.29248047 C-29.03449707 5.3029541 -28.16518555 5.31342773 -27.26953125 5.32421875 C-26.32851563 5.33066406 -25.3875 5.33710937 -24.41796875 5.34375 C-23.433125 5.36050781 -22.44828125 5.37726562 -21.43359375 5.39453125 C-20.44101562 5.40355469 -19.4484375 5.41257812 -18.42578125 5.421875 C-15.96981241 5.44549009 -13.51432207 5.47842326 -11.05859375 5.51953125 C-10.79046875 4.90078125 -10.52234375 4.28203125 -10.24609375 3.64453125 C-7.71916165 -0.87734724 -4.75136017 -0.79626846 0 0 Z " fill="#54ACBF" transform="translate(452.05859375,519.48046875)"/>
<path d="M0 0 C0.7734375 0.99580078 0.7734375 0.99580078 1.5625 2.01171875 C5.46606983 5.19588068 9.73653972 4.59871796 14.625 4.625 C16.53398467 4.65045313 18.44288465 4.68391048 20.3515625 4.7265625 C21.61734131 4.73550537 21.61734131 4.73550537 22.90869141 4.74462891 C25 5 25 5 27 7 C26.67028521 10.29714793 26.3773161 11.6226839 24 14 C21.84521484 14.22705078 21.84521484 14.22705078 19.2109375 14.1953125 C18.26992188 14.18886719 17.32890625 14.18242188 16.359375 14.17578125 C15.37453125 14.15902344 14.3896875 14.14226563 13.375 14.125 C12.38242187 14.11597656 11.38984375 14.10695313 10.3671875 14.09765625 C7.91121866 14.07404116 5.45572832 14.04110799 3 14 C2.67 14.99 2.34 15.98 2 17 C-1.50054938 18.75027469 -5.19011483 18.68972059 -9 18 C-12.37163695 15.76513056 -13.80166229 12.95202101 -14.625 9 C-13.75004681 4.80022471 -11.99012644 3.06131993 -9 0 C-5.81452856 -1.59273572 -3.39809153 -0.76164121 0 0 Z " fill="#5394C6" transform="translate(581,520)"/>
<path d="M0 0 C2.96175123 0.61277612 4.38058783 1.25372522 7 3 C6.67 3.99 6.34 4.98 6 6 C4.82577956 10.21187767 4.58309916 13.62254121 5 18 C6.98 20.97 6.98 20.97 9 24 C9.495 15.09 9.495 15.09 10 6 C14 7 14 7 15 8 C15.08855161 10.6662603 15.11524673 13.30647114 15.09765625 15.97265625 C15.0962413 16.77029892 15.09482635 17.56794159 15.09336853 18.38975525 C15.08775316 20.94737435 15.07519812 23.50490718 15.0625 26.0625 C15.05748698 27.79231645 15.05292373 29.52213426 15.04882812 31.25195312 C15.03777875 35.50133553 15.02050386 39.75065312 15 44 C11.125 43.125 11.125 43.125 10 42 C9.92755947 39.98035801 9.91622812 37.95832876 9.9375 35.9375 C9.94652344 34.83277344 9.95554687 33.72804688 9.96484375 32.58984375 C9.97644531 31.73519531 9.98804688 30.88054688 10 30 C9.401875 30.33 8.80375 30.66 8.1875 31 C6 32 6 32 3 32 C3.22558594 31.26652344 3.45117188 30.53304687 3.68359375 29.77734375 C4.08919105 26.21710077 3.20176421 25.36149195 1.0625 22.5625 C-2.96213646 16.36213199 -2.97352516 10.19846971 -2 3 C-1.34 2.01 -0.68 1.02 0 0 Z " fill="#578DC7" transform="translate(500,601)"/>
<path d="M0 0 C1.485 0.99 1.485 0.99 3 2 C3.3125 4.5 3.3125 4.5 3 7 C0.32092835 9.67907165 -1.45336776 9.38904821 -5.1875 9.75 C-11.41739242 10.64292835 -15.09009772 12.01785305 -19 17 C-19.87602382 18.44530933 -20.73045907 19.90393077 -21.5625 21.375 C-22.734375 23.4296875 -22.734375 23.4296875 -24 25 C-27.3125 25.5 -27.3125 25.5 -30 25 C-31.16648614 21.83382333 -31.29628922 19.72374205 -30.01171875 16.5859375 C-25.3366305 8.24386628 -19.45624223 3.15891858 -10.2421875 0.46484375 C-6.67575917 -0.27453773 -3.63917713 -0.31372217 0 0 Z " fill="#599BC6" transform="translate(623,485)"/>
<path d="M0 0 C8.33726011 0.11879516 14.47944342 2.43818535 20.5 8.25 C26.85495231 15.19551353 26.85495231 15.19551353 27.375 20.5 C27.0625 23.3125 27.0625 23.3125 25.0625 25.3125 C22.625 25.20703125 22.625 25.20703125 20.0625 24.3125 C18.4375 22.38671875 18.4375 22.38671875 17.0625 20 C13.71872488 14.61233165 10.25811447 11.14302246 4.0625 9.3125 C1.0697932 8.87343509 -1.92347255 8.56202733 -4.9375 8.3125 C-5.31813221 5.9864143 -5.65019945 3.65194736 -5.9375 1.3125 C-4.26551674 -0.35948326 -2.29582392 0.06117904 0 0 Z " fill="#5BB4B7" transform="translate(405.9375,485.6875)"/>
<path d="M0 0 C3.68304271 2.65179075 5.17414894 4.62784732 6 9 C6.39000144 13.26001576 6.6989133 16.80602311 4.5 20.5625 C4.005 21.036875 3.51 21.51125 3 22 C-1.75 21.25 -1.75 21.25 -4 19 C-4.1953125 16.6171875 -4.1953125 16.6171875 -4.125 13.875 C-4.10695313 12.96492188 -4.08890625 12.05484375 -4.0703125 11.1171875 C-4.03550781 10.06917969 -4.03550781 10.06917969 -4 9 C-5.17369141 9.12568359 -5.17369141 9.12568359 -6.37109375 9.25390625 C-7.38300781 9.35574219 -8.39492188 9.45757812 -9.4375 9.5625 C-10.95150391 9.71912109 -10.95150391 9.71912109 -12.49609375 9.87890625 C-13.32238281 9.91886719 -14.14867187 9.95882813 -15 10 C-16 9 -16 9 -16.375 6.125 C-16 3 -16 3 -14.1875 1.125 C-9.43304475 -0.55304303 -4.97926964 -0.80744913 0 0 Z " fill="#5AB1BF" transform="translate(586,420)"/>
<path d="M0 0 C4.79472448 0.10423314 7.71231789 0.93041479 11.25 4.375 C11.75 7 11.75 7 11.25 9.375 C10.59 10.035 9.93 10.695 9.25 11.375 C5.86922339 11.34174646 2.61043621 10.80582516 -0.75 10.375 C-1.08 14.005 -1.41 17.635 -1.75 21.375 C-3.73 21.705 -5.71 22.035 -7.75 22.375 C-11.10134048 18.51695817 -11.25248451 15.8189208 -11.11328125 10.8515625 C-10.18462559 4.52072712 -6.29139283 0.09532413 0 0 Z " fill="#69C4A9" transform="translate(444.75,419.625)"/>
<path d="M0 0 C0.92494921 3.42311794 1.35668775 6.45904096 1 10 C-1.15379248 13.64159998 -4.01580598 16.28748313 -7.125 19.125 C-7.8984375 19.89070312 -8.671875 20.65640625 -9.46875 21.4453125 C-15.17112995 26.89468583 -15.17112995 26.89468583 -18.64013672 27.33544922 C-21 27 -21 27 -23 25 C-23.36450195 22.6472168 -23.36450195 22.6472168 -23 20 C-21.39526367 17.81176758 -21.39526367 17.81176758 -19.16796875 15.64453125 C-18.36939453 14.85755859 -17.57082031 14.07058594 -16.74804688 13.25976562 C-15.90306641 12.45216797 -15.05808594 11.64457031 -14.1875 10.8125 C-13.35412109 9.99330078 -12.52074219 9.17410156 -11.66210938 8.33007812 C-3.12635031 0 -3.12635031 0 0 0 Z " fill="#5197C5" transform="translate(480,570)"/>
<path d="M0 0 C5.93245457 2.0361281 9.39850281 5.8838266 13.75 10.25 C14.52988281 11.00152344 15.30976562 11.75304687 16.11328125 12.52734375 C21.69731988 18.09195964 21.69731988 18.09195964 23.140625 22.421875 C23 25 23 25 21 27 C18.67578125 27.44140625 18.67578125 27.44140625 16 27 C13.60546875 24.83984375 13.60546875 24.83984375 11.1875 21.9375 C7.06448059 17.15306669 2.84737095 13.0394758 -2 9 C-1.34 6.03 -0.68 3.06 0 0 Z " fill="#578CC7" transform="translate(546,570)"/>
<path d="M0 0 C3.3 0.33 6.6 0.66 10 1 C10 10.24 10 19.48 10 29 C2.658765 26.063506 2.658765 26.063506 0 24 C-0.56762695 21.45629883 -0.56762695 21.45629883 -0.48828125 18.45703125 C-0.47216797 17.38388672 -0.45605469 16.31074219 -0.43945312 15.20507812 C-0.39755859 14.08552734 -0.35566406 12.96597656 -0.3125 11.8125 C-0.28994141 10.68134766 -0.26738281 9.55019531 -0.24414062 8.38476562 C-0.18514811 5.58852024 -0.1028824 2.79491903 0 0 Z " fill="#5096C5" transform="translate(507,557)"/>
<path d="M0 0 C2.75 2.4375 2.75 2.4375 5 5 C5.33 5.33 5.66 5.66 6 6 C5.84446201 10.12175661 5.60626274 12.32445009 2.8125 15.4375 C-0.56275179 17.31263988 -2.2007634 17.71235686 -6 17 C-9.32878632 14.53959272 -10.79301948 13.10389613 -11.5625 9 C-10.87642343 5.34092496 -9.57265686 3.64832324 -7 1 C-4.35955695 -0.32022153 -2.93650531 -0.40974493 0 0 Z " fill="#5893C9" transform="translate(622,504)"/>
<path d="M0 0 C3.4375 0.5625 3.4375 0.5625 5.875 2.0625 C8.07849302 5.58808884 8.23419284 8.51264472 7.4375 12.5625 C5.9375 15.0625 5.9375 15.0625 3.4375 16.5625 C0.62832139 17.16693392 -1.76007073 17.22290854 -4.5625 16.5625 C-7.55347304 14.02017292 -8.40452557 12.4050303 -9.125 8.5625 C-8.10942024 3.14607461 -5.36154281 0.84655939 0 0 Z " fill="#56B0BB" transform="translate(406.5625,504.4375)"/>
<path d="M0 0 C3.41165683 1.9711795 4.71748902 3.21894024 6.0625 6.9375 C6 10 6 10 4.5 12.8125 C1.24611283 15.65965128 -0.69712377 16.07548906 -5 16 C-7.9375 14.5625 -7.9375 14.5625 -10 12 C-10.65337886 9.19734858 -10.61554992 6.80736787 -10 4 C-7.30203057 -0.15072221 -4.80768487 -0.78492814 0 0 Z " fill="#5DB9B8" transform="translate(559,396)"/>
<path d="M0 0 C3.72975427 1.15283314 5.35163561 1.75988138 7.4375 5.0625 C7.4375 8.99191056 6.99334616 11.2596111 4.75 14.5 C1.66016708 16.58772494 0.0994192 16.7350974 -3.5625 16.0625 C-6.88524404 13.60655875 -8.33868008 12.1368356 -9.1875 8.0625 C-8.06449489 2.67207546 -5.55537361 0.09746269 0 0 Z " fill="#6FC9A8" transform="translate(469.5625,395.9375)"/>
<path d="M0 0 C0.33 0 0.66 0 1 0 C1.33 9.9 1.66 19.8 2 30 C2.33 30 2.66 30 3 30 C3.22114219 37.75226246 3.01400662 45.30174252 2.125 53 C2.04652832 53.70503662 1.96805664 54.41007324 1.88720703 55.13647461 C1.13239086 61.22208942 0.01420016 66.25594527 -4 71 C-2 51 -2 51 -1.75498962 48.78829956 C-1.1192934 42.87008221 -0.80123454 37.00421362 -0.68359375 31.0546875 C-0.66281265 30.15879913 -0.64203156 29.26291077 -0.62062073 28.33987427 C-0.55598643 25.51831658 -0.49664707 22.69667749 -0.4375 19.875 C-0.39423256 17.94530457 -0.35061587 16.01561693 -0.30664062 14.0859375 C-0.20039536 9.39070533 -0.09889388 4.69539252 0 0 Z " fill="#E1EBF2" transform="translate(739,402)"/>
<path d="M0 0 C1.66070538 3.64561221 2.29580129 6.56037526 2.3125 10.5625 C2.32925781 11.49191406 2.34601562 12.42132812 2.36328125 13.37890625 C1.94541502 16.39383356 1.00188259 17.75514486 -1 20 C-2.65 19.67 -4.3 19.34 -6 19 C-8.64851045 7.62996152 -8.64851045 7.62996152 -7.125 3.80078125 C-4.86308185 1.02050686 -3.62868286 0 0 0 Z " fill="#568FC9" transform="translate(541,587)"/>
<path d="M0 0 C3.4545751 1.48053218 5.96449174 2.79016005 8 6 C7.72818865 9.76730525 6.93252993 13.34549083 6 17 C4.35 17.33 2.7 17.66 1 18 C-2.0537332 14.05559461 -2.32572255 10.98063644 -2.30078125 6.18359375 C-1.96887222 3.77402041 -1.19669391 2.10255783 0 0 Z " fill="#599AC9" transform="translate(485,589)"/>
<path d="M0 0 C0 10.56 0 21.12 0 32 C-1.32 31.67 -2.64 31.34 -4 31 C-6.0970603 5.57717673 -6.0970603 5.57717673 -2.515625 1.17578125 C-1 0 -1 0 0 0 Z " fill="#5082C5" transform="translate(515,613)"/>
<path d="M0 0 C2.7211493 0.88437352 3.95082809 1.40267703 5.5 3.8125 C5.3579936 6.65262798 4.82548508 8.32427239 3.25 10.6875 C1.5 11.8125 1.5 11.8125 -1 11.6875 C-3.72274244 10.73454015 -4.97489421 10.26961489 -6.5 7.8125 C-6.375 4.75 -6.375 4.75 -5.5 1.8125 C-2.5 -0.1875 -2.5 -0.1875 0 0 Z " fill="#71C7B1" transform="translate(477.5,338.1875)"/>
<path d="M0 0 C1.8125 1.125 1.8125 1.125 3 3 C3.39704314 6.17634515 3.49933741 8.14003001 1.875 10.9375 C0 12 0 12 -3.0625 11.8125 C-6 11 -6 11 -8 9 C-8.333728 5.86295684 -8.52849028 3.83445834 -6.8125 1.125 C-4.34492892 -0.40659584 -2.85480169 -0.42822025 0 0 Z " fill="#67BEB7" transform="translate(550,338)"/>
<path d="M0 0 C2 2 2 2 2.25 5.5 C2 9 2 9 0 11 C-3.13704316 11.333728 -5.16554166 11.52849028 -7.875 9.8125 C-9.40659584 7.34492892 -9.42822025 5.85480169 -9 3 C-6.73157826 -0.65467947 -4.03373275 -0.4291205 0 0 Z " fill="#607EC6" transform="translate(562,664)"/>
<path d="M0 0 C1.8125 1.125 1.8125 1.125 3 3 C3.3125 6.0625 3.3125 6.0625 3 9 C1 11 1 11 -2.5 11.25 C-6 11 -6 11 -8 9 C-8.333728 5.86295684 -8.52849028 3.83445834 -6.8125 1.125 C-4.34492892 -0.40659584 -2.85480169 -0.42822025 0 0 Z " fill="#62BEB5" transform="translate(350,474)"/>
<path d="M0 0 C3.0625 0.3125 3.0625 0.3125 5 1.4375 C6.0625 3.3125 6.0625 3.3125 5.9375 6.375 C5.0625 9.3125 5.0625 9.3125 2.0625 11.3125 C-1 11.125 -1 11.125 -3.9375 10.3125 C-5.9375 7.3125 -5.9375 7.3125 -5.6875 4.75 C-4.58727173 1.17425813 -3.7416128 0.39804391 0 0 Z " fill="#64B3CA" transform="translate(636.9375,381.6875)"/>
<path d="M0 0 C3.0625 0.3125 3.0625 0.3125 4.9375 1.5 C6.46909584 3.96757108 6.49072025 5.45769831 6.0625 8.3125 C4.9375 10.125 4.9375 10.125 3.0625 11.3125 C0 11.625 0 11.625 -2.9375 11.3125 C-4.9375 9.3125 -4.9375 9.3125 -5.1875 5.8125 C-4.87458101 1.43163414 -4.40975115 0.46912246 0 0 Z " fill="#5E8BC9" transform="translate(465.9375,663.6875)"/>
<path d="M0 0 C1 1 1 1 1.1875 4.4375 C1 8 1 8 -1 10 C-4.13704316 10.333728 -6.16554166 10.52849028 -8.875 8.8125 C-10.40659584 6.34492892 -10.42822025 4.85480169 -10 2 C-7.59027568 -2.25245468 -4.23782457 -0.94173879 0 0 Z " fill="#5A9FC7" transform="translate(392,610)"/>
<path d="M0 0 C3 0.25 3 0.25 5 2.25 C5.3125 5.75 5.3125 5.75 5 9.25 C1.77856724 11.39762184 0.7404533 11.811068 -3 11.25 C-4.875 9.5625 -4.875 9.5625 -6 7.25 C-5.67747519 2.7346526 -4.81889451 0.40157454 0 0 Z " fill="#5B94CD" transform="translate(678,473.75)"/>
<path d="M0 0 C6.57692308 0.57692308 6.57692308 0.57692308 8 2 C8.1875 5.4375 8.1875 5.4375 8 9 C6 11 6 11 3.0625 11.3125 C0 11 0 11 -1.9375 9.875 C-3 8 -3 8 -2.8125 4.9375 C-2 2 -2 2 0 0 Z " fill="#71CBAD" transform="translate(385,382)"/>
<path d="M0 0 C1.8125 1.1875 1.8125 1.1875 3 3 C3.42822025 5.85480169 3.40659584 7.34492892 1.875 9.8125 C-0.83445834 11.52849028 -2.86295684 11.333728 -6 11 C-8 9 -8 9 -8.3125 6.0625 C-8 3 -8 3 -6.8125 1.125 C-4.34492892 -0.40659584 -2.85480169 -0.42822025 0 0 Z " fill="#6684CB" transform="translate(640,609)"/>
<path d="M0 0 C-9.47703207 7.92976153 -21.03664261 13.044347 -33 16 C-32.953125 14.17578125 -32.953125 14.17578125 -32 12 C-29.55722157 10.86672095 -27.29780675 10.00252969 -24.75 9.1875 C-17.86379436 6.83008118 -11.85431908 3.93398279 -5.57421875 0.22265625 C-3 -1 -3 -1 0 0 Z " fill="#EEF6F7" transform="translate(476,469)"/>
<path d="M0 0 C2.87372413 0.60755351 5.09070533 1.48012377 7.6015625 2.99609375 C8.25640625 3.38990234 8.91125 3.78371094 9.5859375 4.18945312 C10.25882813 4.60130859 10.93171875 5.01316406 11.625 5.4375 C12.305625 5.84548828 12.98625 6.25347656 13.6875 6.67382812 C16.35890915 8.29198406 18.78313279 9.78313279 21 12 C20.67 12.66 20.34 13.32 20 14 C16.14668811 12.59434539 12.87863435 10.78799023 9.4375 8.5625 C8.04337891 7.66724609 8.04337891 7.66724609 6.62109375 6.75390625 C1.84214206 3.55606823 1.84214206 3.55606823 0 2 C0 1.34 0 0.68 0 0 Z " fill="#ECF5F7" transform="translate(540,477)"/>
<path d="M0 0 C-1.49526593 4.50642215 -5.09806887 6.33104429 -8.9375 8.6875 C-9.88786133 9.29174805 -9.88786133 9.29174805 -10.85742188 9.90820312 C-13.54280452 11.59397961 -15.9817357 12.9939119 -19 14 C-19.33 13.01 -19.66 12.02 -20 11 C-19.18208984 10.56300781 -19.18208984 10.56300781 -18.34765625 10.1171875 C-13.31032685 7.3789469 -8.54482366 4.42556436 -3.84765625 1.13671875 C-2 0 -2 0 0 0 Z " fill="#EBF5F6" transform="translate(485,477)"/>
<path d="M0 0 C0 0.66 0 1.32 0 2 C-6.86954798 5.30417422 -13.63011293 8.033631 -21 10 C-21.33 9.01 -21.66 8.02 -22 7 C-18.89878289 5.82538445 -15.79357759 4.66169544 -12.6875 3.5 C-11.80642578 3.16613281 -10.92535156 2.83226562 -10.01757812 2.48828125 C-9.17001953 2.17246094 -8.32246094 1.85664063 -7.44921875 1.53125 C-6.66893311 1.23798828 -5.88864746 0.94472656 -5.0847168 0.64257812 C-3 0 -3 0 0 0 Z " fill="#EDF6F6" transform="translate(464,459)"/>
<path d="M0 0 C1.32 0.33 2.64 0.66 4 1 C4.6875 3.3125 4.6875 3.3125 5 6 C4.2884375 6.63421875 4.2884375 6.63421875 3.5625 7.28125 C1.29785554 9.77235891 1.49042269 11.87813803 1.3125 15.1875 C1.24675781 16.27417969 1.18101562 17.36085938 1.11328125 18.48046875 C1.07589844 19.31191406 1.03851563 20.14335938 1 21 C0.67 21 0.34 21 0 21 C0 14.07 0 7.14 0 0 Z " fill="#6F9CCF" transform="translate(510,607)"/>
<path d="M0 0 C5.36095277 1.58921525 10.70843973 3.18972938 16 5 C16 5.99 16 6.98 16 8 C9.97229862 7.52412884 5.23321711 4.80277043 0 2 C0 1.34 0 0.68 0 0 Z " fill="#EDF5F7" transform="translate(562,459)"/>
<path d="M0 0 C1.65 0 3.3 0 5 0 C6.44207941 2.88415883 6.09394887 5.41721528 6.0625 8.625 C6.05347656 9.81351563 6.04445313 11.00203125 6.03515625 12.2265625 C6.02355469 13.14179687 6.01195312 14.05703125 6 15 C5.67 15 5.34 15 5 15 C5 11.04 5 7.08 5 3 C3.02 3.99 3.02 3.99 1 5 C0.01 5 -0.98 5 -2 5 C-1.34 3.35 -0.68 1.7 0 0 Z " fill="#799FD2" transform="translate(505,628)"/>
<path d="M0 0 C1.79275866 3.11910856 2.34290718 5.67682428 2.625 9.25 C2.69976562 10.14203125 2.77453125 11.0340625 2.8515625 11.953125 C2.90054687 12.62859375 2.94953125 13.3040625 3 14 C-1.82142857 8.21428571 -1.82142857 8.21428571 -3 5 C-2.67 4.01 -2.34 3.02 -2 2 C-1.34 2.33 -0.68 2.66 0 3 C0 2.01 0 1.02 0 0 Z " fill="#79BECB" transform="translate(322,566)"/>
<path d="M0 0 C0.66 0.33 1.32 0.66 2 1 C-3 6 -8 11 -13 16 C-11.09744619 9.23536425 -5.59452852 3.96792551 0 0 Z " fill="#77CDA8" transform="translate(428,397)"/>
<path d="M0 0 C0.59375 1.84765625 0.59375 1.84765625 1 4 C-1.78993766 8.5336487 -5.66316727 11.08097797 -10 14 C-8.43632643 10.47761953 -6.30504111 7.72876006 -3.875 4.75 C-3.15054688 3.85796875 -2.42609375 2.9659375 -1.6796875 2.046875 C-0.84824219 1.03367187 -0.84824219 1.03367187 0 0 Z " fill="#F0F0F5" transform="translate(674,618)"/>
<path d="M0 0 C4.29 0 8.58 0 13 0 C12.67 0.99 12.34 1.98 12 3 C10.37581255 3.08090971 8.75048255 3.13914995 7.125 3.1875 C5.76761719 3.23970703 5.76761719 3.23970703 4.3828125 3.29296875 C3.20332031 3.14794922 3.20332031 3.14794922 2 3 C1.34 2.01 0.68 1.02 0 0 Z " fill="#78CDAD" transform="translate(538,291)"/>
<path d="M0 0 C-1.20381448 2.49361571 -2.45428722 4.68143083 -4 7 C-3.34 8.32 -2.68 9.64 -2 11 C-2.99 10.67 -3.98 10.34 -5 10 C-6.125 3.25 -6.125 3.25 -5 1 C-2 0 -2 0 0 0 Z " fill="#6F9CD2" transform="translate(524,622)"/>
<path d="M0 0 C0.99 0.33 1.98 0.66 3 1 C3 4.3 3 7.6 3 11 C1.35 11 -0.3 11 -2 11 C-1.34 10.34 -0.68 9.68 0 9 C0.24253813 6.78927023 0.24253813 6.78927023 0.125 4.375 C0.10695313 3.55773437 0.08890625 2.74046875 0.0703125 1.8984375 C0.04710937 1.27195312 0.02390625 0.64546875 0 0 Z " fill="#66C7B0" transform="translate(470,354)"/>
<path d="M0 0 C0.33 0 0.66 0 1 0 C1.28571429 7.42857143 1.28571429 7.42857143 -1 11 C-1.33 11 -1.66 11 -2 11 C-2.05399736 9.54207116 -2.09279177 8.08357288 -2.125 6.625 C-2.15980469 5.40683594 -2.15980469 5.40683594 -2.1953125 4.1640625 C-2 2 -2 2 0 0 Z " fill="#FCFEFD" transform="translate(740,450)"/>
<path d="M0 0 C0 0.66 0 1.32 0 2 C-3.465 3.485 -3.465 3.485 -7 5 C-7.33 4.01 -7.66 3.02 -8 2 C-5.09399739 0.74335022 -3.20395416 0 0 0 Z " fill="#E6F1F1" transform="translate(464,459)"/>
<path d="M0 0 C2.09350689 3.4019487 2.17942163 6.05272412 2 10 C0.4375 8.375 0.4375 8.375 -1 6 C-0.6875 2.75 -0.6875 2.75 0 0 Z " fill="#6AB7C8" transform="translate(323,570)"/>
<path d="M0 0 C4.75 0.75 4.75 0.75 7 3 C6.34 3.66 5.68 4.32 5 5 C2.5 3.625 2.5 3.625 0 2 C0 1.34 0 0.68 0 0 Z " fill="#E4EFF3" transform="translate(550,468)"/>
<path d="" fill="#FFFFFF" transform="translate(0,0)"/>
</svg>
